<svg xmlns="http://www.w3.org/2000/svg" width="61" height="8" viewBox="0 0 61 8" fill="none">
  <path d="M3.92405 0.310992V7.81769H2.30475V2.93834H0.481689V1.81233H0.674719C1.72566 1.81233 2.45488 1.40483 2.66936 0.310992H3.92405Z" fill="#F99F5E"/>
  <path d="M11.4057 6.49866V7.81769H5.90436C5.93653 6.08043 6.85878 5.42627 8.20999 4.51475C8.87487 4.06434 9.82929 3.58177 9.82929 2.65952C9.82929 2.00536 9.40034 1.57641 8.75691 1.57641C7.96334 1.57641 7.57728 2.10188 7.53439 3.20643H6.07594V3.04558C6.07594 1.34048 7.1376 0.257373 8.81053 0.257373C10.3226 0.257373 11.3628 1.19035 11.3628 2.55228C11.3628 3.76408 10.6979 4.30027 9.80785 4.91153C9.16441 5.35121 8.28506 5.85523 7.8561 6.49866H11.4057Z" fill="#F99F5E"/>
  <path d="M15.6307 0.182306H19.2447C20.5852 0.182306 21.679 0.75067 21.679 2.10188C21.679 2.84182 21.2608 3.39946 20.6388 3.67828C21.4323 3.90349 22.0329 4.48257 22.0329 5.54424C22.0329 7.03485 20.8854 7.81769 19.4484 7.81769H15.6307V0.182306ZM17.2608 1.47989V3.27078H18.7835C19.3948 3.27078 20.049 3.15282 20.049 2.3807C20.049 1.60858 19.427 1.47989 18.7835 1.47989H17.2608ZM17.2608 4.40751V6.48794H18.9444C19.6629 6.48794 20.36 6.34853 20.36 5.44772C20.36 4.52547 19.6093 4.40751 18.8586 4.40751H17.2608Z" fill="#F99F5E"/>
  <path d="M23.3637 0.182306H27.16C28.5648 0.182306 29.7337 0.815013 29.7337 2.34853C29.7337 3.23861 29.2833 3.93566 28.5219 4.2252C29.3691 4.39678 29.5836 5.25469 29.6479 6.00536C29.6908 6.48794 29.7123 7.53887 30.0125 7.81769H28.2753C28.0822 7.43164 28.0822 6.67024 28.0393 6.25201C27.9321 5.20107 27.6104 4.82574 26.5165 4.82574H25.0259V7.81769H23.3637V0.182306ZM25.0259 1.50134V3.61394H26.6131C27.3959 3.61394 28.093 3.47453 28.093 2.53083C28.093 1.65147 27.3959 1.50134 26.6881 1.50134H25.0259Z" fill="#F99F5E"/>
  <path d="M34.5989 0C36.8295 0 38.3415 1.6193 38.3415 4.01072C38.3415 6.39142 36.8295 8 34.5882 8C32.3254 8 30.8134 6.40214 30.8134 4.01072C30.8134 1.58713 32.3147 0 34.5989 0ZM34.5774 1.37265C33.312 1.37265 32.5077 2.39142 32.5077 3.97855C32.5077 5.6193 33.3013 6.6059 34.5989 6.61662C35.8643 6.61662 36.6472 5.60858 36.6472 3.97855C36.6472 2.36997 35.8536 1.37265 34.5774 1.37265Z" fill="#F99F5E"/>
  <path d="M39.5997 7.81769V0.182306H41.3047L44.4468 5.29759V0.182306H46.0554V7.81769H44.3825L41.219 2.69169V7.81769H39.5997Z" fill="#F99F5E"/>
  <path d="M53.4571 0.182306V1.45844L49.3177 6.3807H53.5965V7.81769H47.1301V6.45576L51.2373 1.60858H47.4196V0.182306H53.4571Z" fill="#F99F5E"/>
  <path d="M60.4431 0.182306V1.55496H56.3787V3.21716H60.1106V4.53619H56.3787V6.41287H60.5181V7.81769H54.7165V0.182306H60.4431Z" fill="#F99F5E"/>
</svg>
