<svg xmlns="http://www.w3.org/2000/svg" width="44" height="8" viewBox="0 0 44 8" fill="none">
  <path d="M6.79487 6.49866V7.81769H0.754395C0.789719 6.08043 1.80235 5.42627 3.28598 4.51475C4.01601 4.06434 5.06397 3.58177 5.06397 2.65952C5.06397 2.00536 4.59298 1.57641 3.88649 1.57641C3.01516 1.57641 2.59126 2.10188 2.54416 3.20643H0.942791V3.04558C0.942791 1.34048 2.1085 0.257373 3.94536 0.257373C5.60561 0.257373 6.74777 1.19035 6.74777 2.55228C6.74777 3.76408 6.01773 4.30027 5.04042 4.91153C4.33393 5.35121 3.3684 5.85523 2.89741 6.49866H6.79487Z" fill="#FFEA9D"/>
  <path d="M18.6755 3.68901V7.81769H17.5097L17.3331 6.94906C16.6855 7.66756 15.8966 8 14.8133 8C12.4819 8 10.8688 6.3807 10.8688 4.03217C10.8688 1.67292 12.5643 0.0214474 14.9899 0.0214474C16.8975 0.0214474 18.3458 1.08311 18.5695 2.69169H16.7915C16.6149 1.8874 15.9437 1.42627 14.9664 1.42627C13.5652 1.42627 12.7174 2.40215 12.7174 4.03217C12.7174 5.69437 13.5652 6.65952 15.0253 6.65952C16.1792 6.65952 16.9799 5.96247 17.027 4.93298H15.1548V3.68901H18.6755Z" fill="#FFEA9D"/>
  <path d="M23.9363 0C26.3855 0 28.0457 1.6193 28.0457 4.01072C28.0457 6.39142 26.3855 8 23.9245 8C21.44 8 19.7798 6.40214 19.7798 4.01072C19.7798 1.58713 21.4283 0 23.9363 0ZM23.9128 1.37265C22.5233 1.37265 21.6402 2.39142 21.6402 3.97855C21.6402 5.6193 22.5116 6.6059 23.9363 6.61662C25.3257 6.61662 26.1853 5.60858 26.1853 3.97855C26.1853 2.36997 25.314 1.37265 23.9128 1.37265Z" fill="#FFEA9D"/>
  <path d="M35.2439 6.3807V7.81769H29.3094V0.182306H31.1463V6.3807H35.2439Z" fill="#FFEA9D"/>
  <path d="M36.3009 7.81769V0.182306H39.6921C42.2943 0.182306 43.7544 1.53351 43.7544 4C43.7544 6.45576 42.2943 7.81769 39.6921 7.81769H36.3009ZM38.126 6.42359H39.4684C41.1522 6.42359 41.9057 5.53351 41.9057 4C41.9057 2.46649 41.1286 1.57641 39.4684 1.57641H38.126V6.42359Z" fill="#FFEA9D"/>
</svg>
