<svg xmlns="http://www.w3.org/2000/svg" width="51" height="9" viewBox="0 0 51 9" fill="none">
  <path d="M6.69302 2.28959H5.12275C4.97154 1.71993 4.61096 1.42415 4.02937 1.42415C3.12211 1.42415 2.61031 2.15813 2.48236 3.70278C2.92437 3.13312 3.54084 2.83733 4.2969 2.83733C5.78575 2.83733 6.84423 3.88901 6.84423 5.36793C6.85586 6.9564 5.63454 8.09571 3.94795 8.09571C2.0171 8.09571 0.877197 6.68252 0.877197 4.29434C0.877197 1.7747 2.07526 0.241009 4.05264 0.241009C5.51822 0.241009 6.49528 0.985946 6.69302 2.28959ZM3.91306 3.99856C3.16863 3.99856 2.63358 4.60108 2.63358 5.4227C2.63358 6.25528 3.16863 6.83589 3.92469 6.83589C4.68075 6.83589 5.23907 6.23337 5.23907 5.41175C5.23907 4.59013 4.68075 3.99856 3.91306 3.99856Z" fill="#D9D9D9"/>
  <path d="M17.4637 2.48678H15.7423C15.6725 1.73088 15.1374 1.32555 14.172 1.32555C13.3345 1.32555 12.8343 1.6542 12.8343 2.2129C12.8343 2.89211 13.7184 2.94688 15.37 3.38508C16.8473 3.77946 17.7894 4.31625 17.7894 5.61989C17.7894 7.46033 16.0679 8.13953 14.3814 8.13953C12.1365 8.13953 10.8104 7.12072 10.7872 5.35698H12.5901C12.625 6.40865 13.3578 6.82494 14.4628 6.82494C15.4166 6.82494 15.9982 6.43056 15.9982 5.78422C15.9982 5.17074 15.4398 5.06119 13.73 4.60108C12.3807 4.23957 11.0896 3.92188 11.0896 2.33341C11.0896 0.920217 12.3458 0 14.2767 0C16.0214 0 17.4289 0.744937 17.4637 2.48678Z" fill="#D9D9D9"/>
  <path d="M20.8301 0.164325V7.96426H19.0039V0.164325H20.8301Z" fill="#D9D9D9"/>
  <path d="M28.413 6.49629V7.96426H22.5507V0.164325H24.3652V6.49629H28.413Z" fill="#D9D9D9"/>
  <path d="M27.5985 0.164325H29.4945L31.3556 5.6418L33.2399 0.164325H35.1242L32.3675 7.96426H30.3087L27.5985 0.164325Z" fill="#D9D9D9"/>
  <path d="M42.1484 0.164325V1.56656H37.74V3.26458H41.7878V4.61204H37.74V6.52916H42.2298V7.96426H35.9371V0.164325H42.1484Z" fill="#D9D9D9"/>
  <path d="M43.6656 0.164325H47.7832C49.3069 0.164325 50.5748 0.810667 50.5748 2.37723C50.5748 3.28649 50.0862 3.99856 49.2604 4.29434C50.1793 4.46962 50.4119 5.34602 50.4817 6.11287C50.5283 6.60584 50.5515 7.67943 50.8772 7.96426H48.9929C48.7835 7.56988 48.7835 6.79207 48.737 6.36483C48.6207 5.29125 48.2717 4.90782 47.0853 4.90782H45.4685V7.96426H43.6656V0.164325ZM45.4685 1.51178V3.66991H47.19C48.0391 3.66991 48.7951 3.5275 48.7951 2.56346C48.7951 1.66515 48.0391 1.51178 47.2714 1.51178H45.4685Z" fill="#D9D9D9"/>
</svg>
