<svg xmlns="http://www.w3.org/2000/svg" width="60" height="60" viewBox="0 0 60 60" fill="none">
    <circle cx="30" cy="30" r="29.5" stroke="#838282"/>
    <path d="M21.512 39.5391C21.3714 39.4062 21.2776 39.25 21.2307 39.0703C21.1917 38.8906 21.1956 38.7109 21.2425 38.5312C21.2893 38.3516 21.3792 38.1953 21.512 38.0625L29.012 30.5508L21.512 23.0508C21.3792 22.918 21.2893 22.7617 21.2425 22.582C21.2034 22.4023 21.2034 22.2227 21.2425 22.043C21.2893 21.8633 21.3792 21.707 21.512 21.5742C21.6448 21.4336 21.801 21.3438 21.9807 21.3047C22.1604 21.2578 22.3401 21.2578 22.5198 21.3047C22.7073 21.3438 22.8675 21.4336 23.0003 21.5742L30.5003 29.0742L38.0003 21.5742C38.1331 21.4336 38.2893 21.3438 38.469 21.3047C38.6487 21.2578 38.8284 21.2578 39.0081 21.3047C39.1878 21.3438 39.3479 21.4336 39.4885 21.5742C39.6214 21.707 39.7112 21.8633 39.7581 22.043C39.805 22.2227 39.805 22.4023 39.7581 22.582C39.7112 22.7617 39.6214 22.918 39.4885 23.0508L31.9885 30.5508L39.4885 38.0625C39.6214 38.1953 39.7073 38.3516 39.7464 38.5312C39.7932 38.7109 39.7932 38.8906 39.7464 39.0703C39.7073 39.25 39.6214 39.4062 39.4885 39.5391C39.3557 39.6797 39.1956 39.7695 39.0081 39.8086C38.8284 39.8555 38.6487 39.8555 38.469 39.8086C38.2893 39.7617 38.1331 39.6719 38.0003 39.5391L30.5003 32.0391L23.0003 39.5391C22.8675 39.6719 22.7112 39.7617 22.5315 39.8086C22.3518 39.8555 22.1721 39.8555 21.9925 39.8086C21.8128 39.7617 21.6526 39.6719 21.512 39.5391Z" fill="#838282"/>
</svg>