<svg xmlns="http://www.w3.org/2000/svg" width="60" height="61" viewBox="0 0 60 61" fill="none">
  <circle cx="30" cy="30.1396" r="29.5" stroke="white"/>
  <path d="M30 20.8701C30.2539 20.8701 30.4622 20.9515 30.625 21.1143C30.7878 21.2705 30.8691 21.4756 30.8691 21.7295V34.5908L30.7715 37.501L30.2148 37.3057L33.7207 33.4678L35.9473 31.2803C36.0254 31.2021 36.1165 31.1436 36.2207 31.1045C36.3314 31.0654 36.4453 31.0459 36.5625 31.0459C36.8034 31.0459 37.002 31.1273 37.1582 31.29C37.321 31.4528 37.4023 31.6546 37.4023 31.8955C37.4023 32.1299 37.3145 32.3415 37.1387 32.5303L30.6543 39.0244C30.5632 39.1221 30.4622 39.1937 30.3516 39.2393C30.2409 39.2913 30.1237 39.3174 30 39.3174C29.8828 39.3174 29.7689 39.2913 29.6582 39.2393C29.5475 39.1937 29.4434 39.1221 29.3457 39.0244L22.8711 32.5303C22.6888 32.3415 22.5977 32.1299 22.5977 31.8955C22.5977 31.6546 22.6758 31.4528 22.832 31.29C22.9948 31.1273 23.1966 31.0459 23.4375 31.0459C23.5547 31.0459 23.6654 31.0654 23.7695 31.1045C23.8802 31.1436 23.9746 31.2021 24.0527 31.2803L26.2793 33.4678L29.7754 37.3057L29.2285 37.501L29.1309 34.5908V21.7295C29.1309 21.4756 29.2122 21.2705 29.375 21.1143C29.5378 20.9515 29.7461 20.8701 30 20.8701Z" fill="white"/>
</svg>
