<svg width="60" height="60" viewBox="0 0 60 60" fill="none" xmlns="http://www.w3.org/2000/svg">
<g id="Property 1=Variant2">
<circle id="Ellipse 2" cx="30" cy="30" r="30" fill="white" fill-opacity="0.8"/>
<path id="arrow.down" d="M30 20.7305C30.2539 20.7305 30.4622 20.8118 30.625 20.9746C30.7878 21.1309 30.8691 21.3359 30.8691 21.5898V34.4512L30.7715 37.3613L30.2148 37.166L33.7207 33.3281L35.9473 31.1406C36.0254 31.0625 36.1165 31.0039 36.2207 30.9648C36.3314 30.9258 36.4453 30.9062 36.5625 30.9062C36.8034 30.9062 37.002 30.9876 37.1582 31.1504C37.321 31.3132 37.4023 31.515 37.4023 31.7559C37.4023 31.9902 37.3145 32.2018 37.1387 32.3906L30.6543 38.8848C30.5632 38.9824 30.4622 39.054 30.3516 39.0996C30.2409 39.1517 30.1237 39.1777 30 39.1777C29.8828 39.1777 29.7689 39.1517 29.6582 39.0996C29.5475 39.054 29.4434 38.9824 29.3457 38.8848L22.8711 32.3906C22.6888 32.2018 22.5977 31.9902 22.5977 31.7559C22.5977 31.515 22.6758 31.3132 22.832 31.1504C22.9948 30.9876 23.1966 30.9062 23.4375 30.9062C23.5547 30.9062 23.6654 30.9258 23.7695 30.9648C23.8802 31.0039 23.9746 31.0625 24.0527 31.1406L26.2793 33.3281L29.7754 37.166L29.2285 37.3613L29.1309 34.4512V21.5898C29.1309 21.3359 29.2122 21.1309 29.375 20.9746C29.5378 20.8118 29.7461 20.7305 30 20.7305Z" fill="#838282"/>
</g>
</svg>
