<svg xmlns="http://www.w3.org/2000/svg" width="73" height="58" viewBox="0 0 73 58" fill="none">
  <path fill-rule="evenodd" clip-rule="evenodd" d="M46.3696 28.4542V28.1869C46.814 27.9844 46.814 27.8872 46.7476 27.4498C48.4091 26.8504 49.3521 25.2465 50.1413 23.8411C50.4154 23.104 50.9305 22.1036 50.4154 21.0992C49.0114 18.3248 46.7808 17.9927 45.5471 15.4857C44.8617 14.0478 43.6613 14.7161 42.9094 14.951C42.0163 14.9186 38.7929 14.0479 38.5894 13.2459C39.1709 13.1447 40.0972 13.011 41.0817 12.9138C42.8637 13.2459 44.4422 13.2459 45.0237 12.7437C46.7725 12.7437 47.3914 13.4808 47.8359 14.2504C48.8287 17.292 48.729 17.4905 51.3667 19.2968C51.811 19.7021 52.1511 20.2037 52.3597 20.7609C52.5682 21.3182 52.6393 21.9155 52.5672 22.5046C52.3595 25.3397 49.1402 27.9844 46.3613 28.4542H46.3696ZM4.20783 58C3.62628 57.7327 3.07798 57.3641 2.49643 57.1292C1.83956 56.9119 1.21626 56.608 0.643826 56.226C-0.249255 55.3917 -0.282508 54.2536 0.984421 52.5809C1.25698 52.2399 1.60532 51.9636 2.00319 51.7728C2.40106 51.582 2.83813 51.4816 3.28152 51.4793C3.76337 51.4793 4.07076 51.2768 4.03753 51.0095C3.45599 51.0419 2.87028 51.0743 2.28874 51.1431V50.8434C5.13414 49.6041 6.23077 50.2075 7.97954 50.8434C8.22047 50.9406 8.52785 50.8434 8.83524 50.9406C10.1813 50.5774 11.4988 50.1199 12.7773 49.5717C16.0671 47.3643 19.2241 44.4604 22.5472 41.7832C23.7144 40.8841 24.8443 39.8473 26.1112 39.1101C26.942 38.6079 27.7727 38.1745 28.5453 37.6723C28.9898 37.3726 29.3761 36.9393 29.7915 36.6395C31.1519 35.7512 32.5825 34.9698 34.07 34.3026C34.8551 33.9341 35.5778 33.4318 36.4003 33.0876C36.3572 33.0162 36.333 32.9354 36.3297 32.8527C34.6681 33.2212 29.372 34.4241 28.6201 36.0604C28.5495 36.0604 28.5163 36.194 28.4124 36.0604C28.3792 36.028 28.4124 35.8619 28.3792 35.7931C28.8661 35.237 29.3236 34.6571 29.7499 34.0556C30.3275 33.6263 30.934 33.2353 31.5652 32.8851C31.5652 32.8527 31.4655 32.7514 31.4655 32.719C28.8943 33.4885 27.8641 34.7238 27.2493 36.4978C27.0749 36.996 26.2524 37.1661 25.4632 37.2633C22.9958 37.4982 22.1401 37.6683 20.6987 38.535C20.4951 38.6687 20.4245 38.9684 20.1878 39.102C20.0507 39.2033 19.9136 39.2721 19.7724 39.3693C19.7724 39.2357 19.6353 39.2033 19.7017 39.0696C20.5431 37.8603 21.4703 36.71 22.4765 35.627C24.0218 34.4565 25.837 33.6546 26.1444 32.9215C23.9885 33.0552 21.5751 33.687 20.329 35.4934C20.2251 35.5258 20.1213 35.5258 20.0174 35.5622C20.298 34.5518 20.849 33.6323 21.6139 32.8979C22.3788 32.1634 23.3303 31.6404 24.3707 31.3825C24.6823 31.2812 24.7861 31.0463 25.0935 30.9491C25.4673 29.2764 24.9564 28.7094 24.0965 28.5757C22.8504 28.0735 21.4588 28.2071 20.8773 26.6357C21.8368 26.6033 22.1775 26.4696 22.5388 25.8257C22.6759 25.5584 23.2949 25.692 23.9802 26.0282C24.3956 26.0282 24.6989 25.9593 25.1101 25.9593C25.0769 26.1254 25.0769 26.2955 25.0395 26.4615C24.5522 26.6686 24.1021 26.9502 23.7061 27.2959C23.6735 27.416 23.6609 27.5404 23.6687 27.6644C26.4809 29.4343 28.0926 29.6045 30.3149 27.9317C30.5226 26.9962 30.3149 26.5628 29.6295 26.4291C28.7987 26.6965 27.4695 27.5308 26.4061 27.4984C26.4435 27.3647 26.4435 27.2635 26.4767 27.1622C27.6439 26.9638 28.4996 25.0926 29.6295 22.9865C30.7782 20.8677 32.0485 18.8137 33.4344 16.8344C34.394 15.5667 35.2497 14.4043 36.2134 13.7279C36.2475 13.6268 36.3059 13.5352 36.3837 13.4606H36.6578C36.6578 13.7603 36.554 15.1657 37.2394 15.1657C37.2788 15.0118 37.3025 14.8544 37.31 14.6959H38.0618C40.2925 18.1385 41.5594 18.0048 45.2937 19.5115C48.3136 21.816 46.4942 23.4887 44.9864 24.8901C44.8401 25.09 44.7135 25.3029 44.6083 25.526C44.6309 25.8273 44.6198 26.1302 44.5751 26.4291C44.2345 27.6968 43.3082 29.3371 43.4453 29.9366C44.9934 29.6806 46.5096 29.2665 47.9688 28.7013C49.9211 27.9317 51.8402 28.2315 55.1675 28.3651V28.5352C53.5154 28.7157 51.8778 29.0053 50.2659 29.4019C47.5243 30.1026 44.7454 31.2083 42.1742 32.1439C39.8106 33.0106 37.6049 34.2824 35.3867 35.5177C32.3889 37.2127 29.5146 39.1073 26.7841 41.1879C22.4309 45.2664 18.763 48.4052 14.3225 50.5437C11.824 51.7471 9.15566 52.5811 6.40524 53.0183C5.27539 53.3869 4.34907 53.9863 4.04169 54.6384C3.83399 55.0758 4.07492 55.7117 4.48615 56.4123C5.24216 56.4448 5.10507 55.007 5.75308 53.9823C6.07541 53.7853 6.43865 53.6608 6.81647 53.6178C8.08755 53.6178 9.11354 53.715 10.0731 53.5489C10.7252 53.4476 11.3442 53.0831 12.1293 52.9495C12.1312 53.0066 12.1199 53.0633 12.096 53.1155C10.3154 53.7968 8.48188 54.3385 6.61293 54.7356C6.47585 55.0677 6.30139 55.4363 6.50908 55.6712C6.85385 55.9385 7.4354 55.7036 8.22463 55.7724C11.8925 56.8093 14.256 55.9709 15.3194 55.1366C16.9286 53.3103 18.7396 51.6627 20.7194 50.2237C21.7513 49.3889 22.8773 48.6715 24.0758 48.0853C26.6803 46.9148 29.8704 46.3801 34.1904 45.8131C34.8384 45.643 35.2871 45.5782 35.6983 45.2097C35.9567 44.9589 36.1454 44.648 36.2466 44.3065C36.6246 43.4397 36.6911 42.7715 36.9984 42.1356C37.5841 40.9206 38.5437 40.0295 40.9072 39.26C42.656 38.7254 45.9791 39.0251 48.3468 38.693C48.7483 38.7063 49.1502 38.6833 49.5473 38.6241C49.8528 38.4785 50.1332 38.2872 50.3781 38.0571C52.2265 35.4164 54.6939 32.3869 57.7803 30.8033C58.6019 30.38 59.4778 30.0654 60.3847 29.8677C60.3515 30.0378 60.4221 30.0014 60.3847 30.135C60.2144 30.3375 59.9403 30.54 59.7326 30.8033C58.7066 32.1074 57.5061 34.0799 58.6733 35.8538C58.684 35.9338 58.67 36.0151 58.633 36.0873C58.596 36.1594 58.5377 36.2192 58.4656 36.2588C57.5767 36.6233 56.8913 38.1948 56.8913 39.3977C55.4832 41.7063 52.2971 42.974 48.3551 42.5082C46.1951 42.2409 43.9313 42.2409 42.6643 42.8403C42.1492 43.0752 42.0122 43.5086 41.8086 43.9096C41.7048 44.513 41.5345 45.7807 41.1897 46.2505C40.6332 46.8922 39.9285 47.3961 39.1335 47.7207C38.1943 48.2409 37.1764 48.6128 36.1178 48.8224C34.3358 49.1261 32.2423 48.9236 30.5309 48.9236C28.1297 49.5198 25.8146 50.407 23.6396 51.5643C22.0612 52.4675 20.7319 53.7717 20.8274 54.606C20.8274 54.772 21.0684 54.6384 21.1722 54.772C23.9176 54.512 26.678 54.4335 29.4343 54.5371C38.2405 53.0669 46.8805 51.1958 56.6172 52.9171C62.0172 53.0872 67.4795 53.4517 73 53.8203V53.9863C72.407 53.9377 71.811 53.9377 71.218 53.9863C70.2917 54.12 69.9137 54.3225 68.4765 54.3225C61.6184 54.1564 52.8455 53.6218 46.7102 55.2581C46.7434 55.3593 46.7434 55.4565 46.7767 55.5942C53.4229 55.7279 60.1438 56.4609 66.7942 56.627V56.7971C66.3165 56.7971 65.8014 56.8295 65.2863 56.8619C64.4555 56.8943 63.7784 57.0968 62.8895 57.1616C61.7929 57.2305 59.5955 57.0968 58.4324 57.1292C57.5767 57.1981 57.1281 57.3965 56.5465 57.4654C55.856 57.5242 55.1626 57.5458 54.4696 57.5302C44.5626 57.4654 44.6997 57.0968 43.1919 57.5302C43.329 57.6314 43.4328 57.6314 43.5699 57.8663C40.2468 57.8663 36.8157 57.9636 33.5258 57.9312C32.6701 57.599 31.6067 57.7327 30.6181 57.7327C27.5027 56.9227 23.2865 56.6959 19.8928 57.5302C17.7328 57.3317 16.0173 57.5626 15.6393 57.7651C14.85 57.8988 14.2353 57.6962 13.5623 57.8299C11.5394 58.1661 10.2392 57.7651 8.49046 57.3641C7.03721 57.369 5.59267 57.5833 4.20367 58H4.20783ZM1.71551 54.8247C0.718578 53.6866 1.74874 52.5161 2.96167 52.3501C3.95444 52.2164 4.88076 51.6818 5.15492 51.945C5.02891 52.0604 4.8895 52.161 4.73953 52.2447C4.19122 52.5121 3.40198 52.8482 2.99075 53.6178C2.82215 53.9296 2.61576 54.2206 2.37598 54.4845C2.17483 54.6431 1.94109 54.7577 1.69058 54.8206L1.71551 54.8247ZM34.9007 27.4498V21.3341C34.7969 21.3341 34.7263 21.3665 34.6266 21.3665C33.1852 22.8731 32.0886 23.7398 31.748 26.4129C31.176 26.311 30.6183 26.1438 30.0864 25.9148C29.9161 24.7443 30.8757 24.2421 31.8352 23.2741C32.6244 22.5046 33.3763 21.6014 34.1655 20.767C35.0976 19.8061 35.9028 18.7353 36.5623 17.5796C36.6661 17.612 36.9071 17.612 36.9777 17.6808C37.0815 20.4876 38.5188 21.8889 38.7265 22.46C38.678 22.666 38.5844 22.8594 38.4523 23.027C38.2114 23.3956 37.5966 23.6953 36.9444 24.1651C35.9517 25.9674 35.9517 25.9674 35.2289 27.4052C35.125 27.4052 35.0254 27.4376 34.8883 27.4376L34.9007 27.4498ZM36.6495 30.3578C36.5457 30.3254 36.338 30.1917 36.2341 30.1593C36.7118 29.2885 37.6381 29.1549 37.8085 27.8872C37.8435 27.45 38.0252 27.0362 38.3255 26.7097C38.6258 26.3832 39.028 26.1622 39.47 26.0808C39.9029 25.9491 40.3274 25.7922 40.7411 25.611C40.9531 25.4742 41.133 25.2952 41.269 25.0858C41.405 24.8764 41.4941 24.6413 41.5303 24.396C41.5303 23.8978 41.5303 23.3267 41.4929 22.861C40.604 21.6905 38.444 19.9206 38.6143 18.3491C39.2665 18.8473 39.47 19.3819 42.5563 20.3215C43.7568 20.9533 44.7163 21.9416 43.9271 22.9946C42.2655 23.9626 41.9042 24.4972 41.7339 25.935C41.6579 26.6715 41.4364 27.3867 41.0817 28.0411C40.6201 28.7797 39.9631 29.3835 39.1795 29.789C38.396 30.1946 37.5148 30.3868 36.6287 30.3456L36.6495 30.3578ZM18.4473 31.3946C17.2468 29.6571 16.4244 28.3854 16.2167 27.385C15.8428 25.6799 16.6653 24.6754 16.3537 22.9055C15.739 21.5001 14.9497 19.9651 14.4346 18.661C13.5789 14.5177 18.2396 11.5408 19.6478 8.0658C21.1182 3.65519 20.8939 5.25905 21.3093 4.22221C21.3425 4.12096 21.2719 4.12096 21.2719 3.9873C19.3902 4.25461 18.1191 4.69202 17.3299 5.36029C15.037 7.23146 16.2 10.5404 13.6288 13.9466C11.0243 15.7206 10.9579 16.8911 11.1614 18.4018C11.3317 19.8072 12.0171 21.2774 12.8769 22.78C13.4253 23.7844 14.1439 24.7848 14.4845 25.9229C13.3214 25.0845 12.0877 23.2822 11.0243 21.5082C9.72002 19.3697 9.20909 16.9964 9.82386 15.194C11.553 13.1541 12.7108 10.7122 13.1843 8.10629C13.4917 6.63609 14.0151 5.4656 15.2613 4.59887C16.0505 4.06425 17.4919 3.52964 19.3071 3.02742C20.9687 2.5252 22.975 2.09183 24.4496 1.15625C26.5266 -0.115494 27.6024 -0.0587921 28.4581 0.0546119C29.5921 0.253069 31.237 1.055 32.126 1.45596C32.126 1.55722 32.1633 1.69087 32.1633 1.79213C29.5547 0.45558 28.4955 0.520377 25.7498 1.85692C25.7328 1.99142 25.7328 2.12744 25.7498 2.26194C28.1175 2.26194 29.0729 2.86541 31.1498 4.0359C32.2132 3.63089 34.5435 5.16995 35.1624 5.73697C35.3328 6.14198 35.6775 6.44169 35.5031 6.8062C35.0877 7.74583 34.8177 9.31324 33.9952 10.0828C33.1727 10.8523 32.6577 11.5206 32.558 12.4237C32.4541 12.4237 32.3503 12.3549 32.2838 12.3549C32.7283 9.54815 35.1624 7.81064 32.5912 5.46966C27.6066 1.49242 23.8141 1.92983 21.895 5.90707C21.626 6.40061 21.3968 6.91383 21.2096 7.44207C21.0095 8.45794 20.8708 9.48439 20.7942 10.5161C17.4337 18.2722 15.6517 15.6315 18.8419 23.4766C18.9084 24.481 19.0122 25.449 18.7381 26.2509C18.0527 28.4259 17.5376 29.4262 18.601 31.3987L18.4473 31.3946ZM34.6474 10.2367C35.1957 6.9277 39.2748 6.46194 37.1148 2.75201C36.1552 2.71961 33.0024 3.38788 32.7947 2.05134C33.5507 2.11614 34.3026 2.14853 34.988 2.14853C35.2289 2.14853 35.2289 1.91768 35.4698 1.91768C38.0078 1.91768 40.3049 3.08412 39.1045 6.22703C39.0006 6.46194 38.9674 6.86291 38.8303 7.13022C38.7597 7.19502 38.7929 7.33272 38.6226 7.46637C38.1624 7.49436 37.7244 7.66945 37.3765 7.96455C36.9985 8.90013 36.3837 9.7709 35.5944 9.8033C35.3142 9.87181 35.07 10.0392 34.9091 10.2731C34.8052 10.2731 34.7387 10.2367 34.6349 10.2367H34.6474ZM30.157 11.0994C30.6347 10.6295 31.0833 8.62471 29.779 8.325C27.4487 8.02529 27.7021 7.65673 26.3189 5.91922C23.9512 5.78556 24.5369 10.0301 22.1359 10.7794C21.9988 10.8118 22.1692 10.5121 22.0321 10.5445C22.651 9.80736 23.4402 9.374 23.6438 8.47081C23.8847 7.43803 24.1589 6.40119 24.4746 5.96377C24.5725 5.81917 24.7009 5.69665 24.8514 5.60444C25.0018 5.51223 25.1708 5.45247 25.3469 5.42915C25.7398 5.36842 26.1423 5.41467 26.5099 5.5628C26.9965 5.78191 27.4563 6.05363 27.8807 6.37283C28.3293 6.67254 29.5422 6.87505 30.1113 6.90745C31.7729 7.04111 31.8933 7.20716 32.4749 8.52751C32.4577 8.70008 32.4029 8.86708 32.314 9.01728C32.2252 9.16747 32.1044 9.29738 31.9598 9.39829C31.5444 9.6656 31.2744 10.3015 31.129 11.1358C30.9255 11.1682 30.4104 11.4355 30.2027 11.4031C30.0657 11.3707 30.2734 11.071 30.1363 11.1358L30.157 11.0994ZM38.6392 11.8446C38.6694 11.7813 38.6823 11.7116 38.6766 11.6421C41.2105 10.6376 44.5377 7.59193 42.7557 4.78923C41.4514 3.38788 40.0141 2.58595 39.2249 0.945642C39.4394 0.896918 39.6626 0.896918 39.8771 0.945642C41.5885 1.48026 44.3674 4.89049 45.3269 5.99213C46.2159 7.33273 46.0123 8.53561 45.0528 9.33754C43.5408 10.6741 40.5251 11.8081 38.6392 11.8446ZM33.6546 12.5453C34.3732 11.0427 36.2591 10.3703 37.7005 9.63726C39.308 8.46677 40.0308 6.80215 40.6082 5.02414C41.738 5.49395 41.2936 7.60003 40.8491 8.53562C39.2374 10.3055 36.0514 12.0754 33.6504 12.5453H33.6546ZM41.8792 12.8774C41.7795 12.8126 41.1939 12.6101 41.0485 12.5453C41.0485 12.4764 41.1523 12.444 41.1523 12.4116C43.142 10.6741 43.005 10.7065 45.6094 10.3055C45.95 8.001 46.7393 8.19945 48.6958 6.96416C49.1402 6.36069 48.5919 5.66001 46.1245 4.62317C45.8482 4.47311 45.6306 4.23815 45.5056 3.9549C46.3155 4.11222 47.0705 4.46917 47.6988 4.99174C48.5296 4.62317 49.9959 5.55876 50.4404 5.76127C50.648 7.89974 49.9627 8.46676 48.3177 9.5036C48.4216 11.0426 48.2471 11.1237 47.6656 11.9094C43.6529 11.5408 43.7568 12.5453 41.8502 12.8774H41.8792ZM21.0061 19.2968C20.3539 17.9238 20.5242 16.8911 20.6613 15.4857H20.9728C20.8707 16.7639 20.9745 18.0499 21.2802 19.2968H21.0061ZM52.4384 19.9651C52.509 18.6286 52.6087 17.3568 52.1975 16.1215C51.718 15.9346 51.2857 15.6486 50.9305 15.2831C50.181 14.2336 49.1326 13.4212 47.9148 12.9462V12.7802C49.4559 12.8126 49.6636 12.9138 51.3085 14.2828C52.0271 14.8822 54.7355 16.6885 55.0761 17.1179C55.1911 17.3129 55.2619 17.5297 55.2838 17.7537C55.3502 18.422 54.8393 19.2604 53.8798 19.7586C53.4326 19.9707 52.9287 20.0415 52.4384 19.9611V19.9651ZM26.4559 23.4401C26.8482 22.4484 27.0563 21.3965 27.0707 20.3337C26.5224 20.0299 25.9741 20.2324 25.4092 20.2648V20.0988C26.132 19.8963 27.3989 19.3292 27.7062 18.5597C27.7461 18.4394 27.7607 18.3125 27.7493 18.1866C27.7379 18.0607 27.7007 17.9383 27.6398 17.8266C23.2533 20.2324 24.7612 19.2968 24.7321 20.3985C24.7321 20.8318 24.9065 22.1684 24.6989 22.9379C24.595 22.9055 24.4247 22.8731 24.3209 22.8367C24.1506 21.8363 23.7061 21.6014 23.4651 21.0344C23.4984 20.4673 23.4652 19.6978 23.4984 18.6043C24.7445 18.5395 26.4061 18.7744 28.3667 16.2673C29.671 16.0324 31.0418 15.3642 31.6233 14.1289H31.8975C31.8643 14.2949 31.9681 14.461 31.9307 14.627C31.694 15.0644 31.3492 15.5302 31.0044 16.1985C30.56 17.0693 30.0823 18.1709 29.4633 19.1389C28.537 20.5767 27.511 22.0833 26.7218 23.4199C26.6179 23.4199 26.5141 23.4523 26.4476 23.4523L26.4559 23.4401ZM20.6405 25.8702C20.6022 25.829 20.5555 25.7959 20.5035 25.773C20.7099 23.7382 21.0428 21.7176 21.5004 19.7221H21.841C21.5668 21.5933 21.0102 23.7317 20.6405 25.8702Z" fill="url(#paint0_linear_286_130)"/>
  <defs>
    <linearGradient id="paint0_linear_286_130" x1="0.0165828" y1="14.5582" x2="63.8782" y2="61.6759" gradientUnits="userSpaceOnUse">
      <stop offset="0.226168" stop-color="#D9561A"/>
      <stop offset="0.524881" stop-color="#FFAD6A"/>
      <stop offset="0.82117" stop-color="#A73F04"/>
    </linearGradient>
  </defs>
</svg>
