<svg xmlns="http://www.w3.org/2000/svg" width="74" height="58" viewBox="0 0 74 58" fill="none">
  <path fill-rule="evenodd" clip-rule="evenodd" d="M47.0953 28.446V28.1786C47.5437 27.976 47.5437 27.8788 47.4731 27.4412C49.1339 26.8417 50.0764 25.2373 50.8652 23.8316C51.1392 23.0942 51.6541 22.0936 51.1392 21.0888C49.7359 18.3137 47.5063 17.9815 46.2732 15.4738C45.5882 14.0356 44.3883 14.704 43.6368 14.939C42.7442 14.9066 39.5265 14.0356 39.3189 13.2334C39.9001 13.1321 40.826 12.9985 41.81 12.9012C43.5911 13.2334 45.1647 13.2334 45.746 12.7311C47.4939 12.7311 48.1125 13.4684 48.5568 14.2381C49.5491 17.2806 49.4494 17.4792 52.0858 19.286C52.5299 19.6914 52.8699 20.1931 53.0784 20.7505C53.2868 21.308 53.3579 21.9054 53.2857 22.4946C53.0781 25.3305 49.8605 27.976 47.0829 28.446H47.0953ZM4.95812 58C4.37686 57.7326 3.82881 57.364 3.24755 57.129C2.591 56.9116 1.96798 56.6076 1.39582 56.2256C0.507327 55.391 0.469961 54.2526 1.74043 52.5794C2.01117 52.2375 2.35839 51.9605 2.75559 51.7695C3.15279 51.5785 3.58945 51.4786 4.03225 51.4775C4.51387 51.4775 4.82111 51.2749 4.78789 51.0075C4.20663 51.0399 3.62122 51.0723 3.03996 51.1412V50.8414C5.88398 49.6017 6.98007 50.2054 8.72801 50.8414C8.96881 50.9386 9.27605 50.8414 9.58329 50.9386C10.9289 50.576 12.2458 50.1184 13.5234 49.5693C16.8117 47.3614 19.9671 44.4566 23.2886 41.7787C24.4552 40.8793 25.5845 39.8422 26.8509 39.1049C27.6812 38.6025 28.5324 38.169 29.2838 37.6667C29.7322 37.3669 30.1142 36.9334 30.5294 36.6336C31.8917 35.7433 33.3244 34.9602 34.8141 34.2919C35.603 33.9233 36.3213 33.4209 37.1433 33.0766C37.1003 33.0051 37.076 32.9244 37.0727 32.8416C35.412 33.2103 30.1184 34.4135 29.3669 36.0502C29.2963 36.0502 29.2631 36.1839 29.1593 36.0502C29.1261 36.0178 29.1593 35.8517 29.1261 35.7828C29.6128 35.2266 30.0701 34.6465 30.4962 34.0448C31.0735 33.6154 31.6796 33.2243 32.3106 32.874C32.3106 32.8416 32.2109 32.7403 32.2109 32.7079C29.6409 33.4776 28.6113 34.7133 27.9968 36.4877C27.8224 36.986 27.0003 37.1562 26.2156 37.2534C23.7453 37.4884 22.8941 37.6586 21.4534 38.5255C21.2459 38.6592 21.1794 38.959 20.9386 39.0927C20.8016 39.194 20.6646 39.2629 20.5234 39.3601C20.5234 39.2264 20.3864 39.194 20.4529 39.0603C21.2939 37.8496 22.2221 36.6989 23.2304 35.6167C24.7708 34.4459 26.5851 33.6437 26.8965 32.9105C24.7376 33.0442 22.3046 33.6762 21.0839 35.483C20.9801 35.5154 20.8763 35.5154 20.7725 35.5519C21.053 34.5412 21.6037 33.6215 22.3682 32.8868C23.1328 32.1522 24.0838 31.629 25.1237 31.371C25.4351 31.2697 25.5389 31.0347 25.8461 30.9375C26.2239 29.2643 25.7091 28.6971 24.8497 28.5634C23.6041 28.0611 22.2132 28.1948 21.632 26.6229C22.5911 26.5905 22.9315 26.4568 23.2927 25.8126C23.4297 25.5452 24.0484 25.6789 24.7334 26.0152C25.1486 26.0152 25.4517 25.9463 25.8627 25.9463C25.8295 26.1124 25.8295 26.2826 25.7963 26.4487C25.3112 26.6583 24.864 26.9428 24.4718 27.2913C24.4393 27.4115 24.4267 27.536 24.4345 27.66C27.2453 29.4304 28.8562 29.6006 31.0775 27.9274C31.285 26.9916 31.0774 26.5581 30.3924 26.4244C29.562 26.6917 28.2334 27.5263 27.1747 27.4939C27.2079 27.3602 27.2079 27.2589 27.2411 27.1577C28.4078 26.9591 29.2631 25.0874 30.3924 22.9808C31.5405 20.8613 32.8102 18.8068 34.1955 16.8269C35.1546 15.5589 36.014 14.3961 36.9731 13.7196C37.0072 13.6185 37.0656 13.5268 37.1433 13.4522H37.4173C37.4173 13.752 37.3135 15.1578 37.9986 15.1578C38.04 15.0042 38.0637 14.8466 38.0692 14.6878H38.8207C41.0502 18.1314 42.3165 17.9977 46.0532 19.5048C49.0674 21.81 47.2489 23.4831 45.7418 24.8849C45.5956 25.0848 45.4691 25.2978 45.364 25.5209C45.3866 25.8224 45.3754 26.1253 45.3308 26.4244C44.9903 27.6924 44.0852 29.3332 44.2015 29.9328C45.7488 29.6767 47.2643 29.2626 48.7228 28.6971C50.6784 27.9274 52.5965 28.2272 55.918 28.3609V28.531C54.2667 28.7116 52.6299 29.0013 51.0188 29.398C48.2786 30.0989 45.501 31.2049 42.9352 32.1407C40.5686 33.0077 38.3432 34.2798 36.151 35.5154C33.1527 37.21 30.2783 39.1051 27.5484 41.1872C23.1972 45.2668 19.5311 48.4066 15.0928 50.5457C12.594 51.7494 9.92562 52.5837 7.17521 53.021C6.0459 53.3897 5.09928 53.9892 4.8128 54.6415C4.60521 55.079 4.84602 55.7151 5.25705 56.416C6.01269 56.4484 5.87568 55.0102 6.52752 53.9852C6.84784 53.7875 7.20973 53.6629 7.58624 53.6206C8.85671 53.6206 9.88222 53.7178 10.8413 53.5517C11.4931 53.4504 12.1118 53.0858 12.9172 52.9521C12.9194 53.0097 12.9065 53.0668 12.8799 53.1182C11.1001 53.7996 9.26746 54.3415 7.39941 54.7387C7.2624 55.0709 7.09217 55.4396 7.29561 55.6746C7.64022 55.942 8.22148 55.707 9.01033 55.7759C12.6764 56.813 15.0388 55.9744 16.1017 55.1398C17.7101 53.313 19.5202 51.665 21.4991 50.2256C22.5305 49.3906 23.656 48.6729 24.8538 48.0865C27.4612 46.9157 30.6664 46.3809 34.9636 45.8138C35.6154 45.6436 36.0597 45.5788 36.4707 45.2101C36.729 44.9593 36.9176 44.6484 37.0188 44.3067C37.3966 43.4397 37.463 42.7713 37.7702 42.1352C38.3557 40.9198 39.3147 40.0286 41.6771 39.2588C43.4251 38.724 46.7507 39.0238 49.1131 38.6916C49.5144 38.705 49.9161 38.6819 50.313 38.6228C50.6191 38.4782 50.8994 38.2867 51.1434 38.0556C52.991 35.4142 55.4613 32.3838 58.542 30.7997C59.3639 30.3776 60.2391 30.063 61.1452 29.8639C61.112 30.0341 61.1826 29.9976 61.1452 30.1313C60.975 30.3339 60.701 30.5364 60.4975 30.7997C59.4679 32.1043 58.268 34.0772 59.4346 35.8517C59.4453 35.9317 59.4313 36.013 59.3943 36.0852C59.3573 36.1574 59.2991 36.2171 59.227 36.2568C58.3386 36.6214 57.6535 38.1933 57.6535 39.3966C56.246 41.7058 53.0615 42.9738 49.1214 42.5079C46.9625 42.2405 44.6997 42.2405 43.4334 42.8401C42.9185 43.0751 42.7815 43.5086 42.5781 43.9097C42.4743 44.5133 42.3041 45.7814 41.9595 46.2513C41.4032 46.8932 40.6989 47.3972 39.9043 47.7219C38.9658 48.2429 37.9483 48.6148 36.8901 48.8239C35.1089 49.1277 33.0164 48.9251 31.3058 48.9251C28.9058 49.5215 26.5918 50.4089 24.4179 51.5666C22.8443 52.47 21.5116 53.7745 21.6112 54.6091C21.6112 54.7752 21.8479 54.6415 21.9517 54.7752C24.6958 54.5152 27.4548 54.4366 30.2097 54.5402C39.0158 53.0696 47.6475 51.1979 57.3795 52.9197C62.7769 53.0899 68.2407 53.4545 73.7544 53.8231V53.9892C73.1617 53.9406 72.5659 53.9406 71.9732 53.9892C71.0474 54.1229 70.6737 54.3255 69.233 54.3255C62.3825 54.1594 53.6096 53.6246 47.4773 55.2613C47.5105 55.3626 47.5105 55.4599 47.5437 55.5976C54.1867 55.7313 60.9085 56.4646 67.5557 56.6307V56.8008C67.0741 56.8008 66.5592 56.8332 66.0444 56.8656C65.214 56.8981 64.5373 57.1006 63.6488 57.1654C62.5527 57.2343 60.3605 57.1006 59.1938 57.133C58.3386 57.2019 57.8901 57.4004 57.3089 57.4693C56.6255 57.5273 55.9395 57.549 55.2537 57.5341C45.3515 57.4693 45.4886 57.1006 43.9814 57.5341C44.1184 57.6354 44.2222 57.6354 44.3592 57.8704C41.0378 57.8704 37.6083 57.9676 34.3201 57.9352C33.4648 57.603 32.4019 57.7367 31.4138 57.7367C28.2957 56.9264 24.0816 56.6995 20.6895 57.5341C18.5305 57.3356 16.8158 57.5665 16.438 57.7691C15.6533 57.9028 15.0347 57.7002 14.3621 57.8339C12.3401 58.1702 11.0406 57.7691 9.29266 57.368C7.82361 57.3668 6.36263 57.5798 4.95812 58ZM2.467 54.84C1.47471 53.7016 2.50022 52.5308 3.71256 52.3647C4.70901 52.231 5.63072 51.6962 5.90474 51.9596C5.77968 52.076 5.6402 52.1767 5.48956 52.2593C4.94151 52.5267 4.15266 52.863 3.74162 53.6327C3.57311 53.9447 3.36681 54.2358 3.12715 54.4997C2.93428 54.6575 2.70927 54.7735 2.467 54.84ZM35.632 27.4574V21.34C35.5282 21.34 35.4618 21.3724 35.358 21.3724C33.9173 22.8795 32.8212 23.7465 32.4808 26.4203C31.9091 26.3183 31.3517 26.1511 30.82 25.922C30.6498 24.7512 31.6089 24.2488 32.568 23.2806C33.3568 22.5108 34.1125 21.6074 34.8972 20.7728C35.8424 19.8187 36.66 18.7514 37.3302 17.5966C37.4339 17.6291 37.6748 17.6291 37.7453 17.6979C37.8491 20.5055 39.2898 21.9072 39.4933 22.4784C39.4448 22.6845 39.3513 22.878 39.2192 23.0456C38.9784 23.4143 38.364 23.7141 37.7121 24.184C36.7198 25.9868 36.7198 25.9868 35.9974 27.425C35.8978 27.425 35.794 27.4574 35.657 27.4574H35.632ZM37.38 30.3663C37.2762 30.3339 37.0686 30.2002 36.9648 30.1678C37.4422 29.2967 38.3681 29.163 38.5383 27.895C38.5741 27.4579 38.7559 27.0443 39.056 26.7179C39.356 26.3914 39.7576 26.1702 40.1991 26.0881C40.6302 25.9556 41.053 25.7987 41.4654 25.6182C41.6786 25.4827 41.8593 25.304 41.9954 25.0943C42.1316 24.8846 42.2198 24.6487 42.2543 24.4028C42.2543 23.9045 42.2542 23.3332 42.221 22.8673C41.3284 21.6965 39.1694 19.9261 39.3396 18.3542C39.9915 18.8525 40.1991 19.3873 43.2798 20.3272C44.4796 20.9592 45.4387 21.9477 44.6499 23.001C42.9891 23.9693 42.6321 24.5041 42.4577 25.9423C42.3833 26.6787 42.1633 27.3941 41.81 28.0489C41.3473 28.7875 40.6897 29.3911 39.906 29.7967C39.1222 30.2022 38.2412 30.3947 37.3551 30.3541L37.38 30.3663ZM19.1865 31.4034C17.9866 29.6654 17.1646 28.3933 16.9611 27.3926C16.5833 25.687 17.4054 24.6823 17.0982 22.9119C16.4795 21.5061 15.6907 19.9707 15.1758 18.6662C14.3206 14.5217 18.9789 11.544 20.3864 8.06804C21.8603 3.6562 21.632 5.26051 22.0472 4.22339C22.0804 4.1221 22.0139 4.1221 22.0139 3.98841C20.129 4.2558 18.8585 4.69333 18.0738 5.36179C15.7779 7.23348 16.9404 10.5434 14.3704 13.9505C11.7672 15.725 11.7007 16.8958 11.9042 18.4069C12.0744 19.8127 12.7636 21.2833 13.6189 22.7863C14.1669 23.791 14.8852 24.7917 15.2298 25.9301C14.0631 25.0915 12.83 23.2887 11.7672 21.5142C10.4676 19.3751 9.9528 17.0011 10.5673 15.1983C12.2956 13.1578 13.4528 10.7152 13.9261 8.10856C14.2334 6.63794 14.7565 5.46713 16.0021 4.60016C16.7909 4.06539 18.2316 3.53062 20.046 3.02826C21.7067 2.5259 23.7121 2.09242 25.186 1.15657C27.2619 -0.115526 28.3372 -0.0588086 29.1967 0.0546271C30.326 0.25314 31.9701 1.05529 32.8586 1.45636C32.8586 1.55765 32.896 1.69134 32.896 1.79262C30.2927 0.455701 29.2299 0.520523 26.4897 1.85744C26.4706 1.99185 26.4706 2.12817 26.4897 2.26257C28.8521 2.26257 29.8111 2.86621 31.8871 4.03703C32.9499 3.6319 35.2791 5.17138 35.8978 5.73856C36.068 6.14369 36.4126 6.44349 36.2382 6.8081C35.823 7.748 35.5532 9.31584 34.7311 10.0856C33.909 10.8553 33.3983 11.5238 33.2945 12.4272C33.1907 12.4272 33.0869 12.3584 33.0205 12.3584C33.4648 9.55082 35.8978 7.81282 33.3278 5.47119C28.3455 1.49283 24.5549 1.93037 22.6367 5.90872C22.3679 6.4024 22.1388 6.91577 21.9517 7.44415C21.7537 8.46062 21.615 9.48725 21.5365 10.5191C18.1818 18.2773 16.3965 15.6358 19.5851 23.4831C19.6515 24.4879 19.7553 25.4561 19.4813 26.2583C18.7963 28.4338 18.2814 29.4345 19.3443 31.4074L19.1865 31.4034ZM35.3788 10.2395C35.9268 6.92964 40.0039 6.46374 37.845 2.75277C36.8859 2.72036 33.7346 3.38882 33.527 2.0519C34.2827 2.11672 35.0383 2.14914 35.7234 2.14914C35.96 2.14914 35.96 1.91821 36.2008 1.91821C38.7376 1.91821 41.0336 3.08498 39.8337 6.22877C39.7299 6.46375 39.6967 6.86481 39.5597 7.1322C39.4891 7.19702 39.5265 7.33477 39.3521 7.46846C38.8921 7.49646 38.4543 7.67158 38.1065 7.96676C37.7287 8.9026 37.1143 9.77363 36.3254 9.80604C36.0453 9.87457 35.8012 10.042 35.6403 10.276C35.5365 10.276 35.4701 10.2395 35.3663 10.2395H35.3788ZM30.8906 11.0862C31.3722 10.6163 31.8165 8.61091 30.5128 8.31112C28.1836 8.01133 28.4369 7.64266 27.0543 5.90466C24.6877 5.77097 25.2732 10.0167 22.8734 10.7662C22.7364 10.7986 22.9066 10.4988 22.7696 10.5312C23.3882 9.79389 24.1771 9.36041 24.3805 8.45697C24.6213 7.4239 24.8953 6.38677 25.2109 5.94923C25.3074 5.79617 25.4376 5.66591 25.5919 5.56783C25.7463 5.46975 25.921 5.40631 26.1035 5.38206C26.4963 5.32131 26.8986 5.36757 27.266 5.51574C27.7524 5.73492 28.212 6.00671 28.6362 6.326C29.0846 6.62579 30.3177 6.82836 30.8657 6.86077C32.5264 6.99446 32.6469 7.16056 33.2281 8.48128C33.211 8.6539 33.1561 8.82094 33.0673 8.97117C32.9785 9.12141 32.8578 9.25136 32.7133 9.3523C32.2981 9.61969 32.0282 10.2557 31.8829 11.0903C31.6795 11.1227 31.1646 11.3901 30.9612 11.3577C30.8242 11.3253 31.0276 11.0255 30.8906 11.0903V11.0862ZM39.3895 11.8236C39.4165 11.7595 39.4279 11.6901 39.4227 11.621C41.9595 10.6163 45.281 7.56974 43.4998 4.76625C42.1961 3.36451 40.7596 2.56237 39.9707 0.9216C40.1851 0.872862 40.4082 0.872862 40.6226 0.9216C42.3331 1.45637 45.1107 4.86754 46.0698 5.96948C46.9583 7.31046 46.7549 8.51369 45.7958 9.31584C44.2887 10.6528 41.2703 11.7871 39.3895 11.8236ZM34.4072 12.5244C35.1255 11.0214 37.0105 10.3489 38.4511 9.61563C40.0621 8.44481 40.7803 6.77974 41.3574 5.00123C42.4909 5.47118 42.0425 7.57784 41.5983 8.51368C39.9873 10.2841 36.8029 12.0545 34.4031 12.5244H34.4072ZM42.6321 12.8567C42.5283 12.7918 41.947 12.5893 41.8017 12.5244C41.8017 12.4556 41.9013 12.4232 41.9013 12.3908C43.8901 10.6528 43.7531 10.6852 46.3563 10.2841C46.7009 7.97891 47.4856 8.17743 49.4411 6.94179C49.8854 6.33815 49.3373 5.63728 46.8711 4.60016C46.5961 4.44863 46.379 4.21403 46.2525 3.93169C47.062 4.08906 47.8167 4.44611 48.4447 4.96882C49.275 4.60015 50.7407 5.53599 51.1891 5.73856C51.3925 7.87763 50.7074 8.44482 49.0633 9.48194C49.1671 11.0214 48.9927 11.1025 48.4115 11.8884C44.4049 11.5197 44.5046 12.5244 42.6238 12.8567H42.6321ZM21.7648 19.2779C21.113 17.9045 21.2874 16.8715 21.4244 15.4657H21.7316C21.6317 16.7443 21.7353 18.0303 22.0389 19.2779H21.7648ZM53.1819 19.9464C53.2525 18.6095 53.3522 17.3374 52.9411 16.1017C52.4693 15.9122 52.0446 15.6263 51.6956 15.2631C50.9465 14.2133 49.8985 13.4006 48.6813 12.9255V12.7594C50.2217 12.7918 50.4293 12.8931 52.0734 14.2624C52.7917 14.862 55.4987 16.6689 55.8433 17.0983C55.9571 17.2936 56.0265 17.5106 56.0467 17.7344C56.1173 18.4028 55.6025 19.2415 54.6434 19.7398C54.1965 19.952 53.6928 20.0228 53.2027 19.9423L53.1819 19.9464ZM27.2121 23.4224C27.6053 22.4305 27.8147 21.3784 27.8307 20.315C27.2827 20.0112 26.7346 20.2138 26.17 20.2462V20.0801C26.8882 19.8775 28.1545 19.3103 28.4618 18.5406C28.5016 18.4202 28.5163 18.2933 28.5048 18.1674C28.4934 18.0414 28.4562 17.919 28.3954 17.8073C24.011 20.2138 25.5181 19.2779 25.489 20.3799C25.489 20.8134 25.6593 22.1503 25.4517 22.92C25.352 22.8876 25.1777 22.8552 25.0739 22.8187C24.9036 21.8181 24.4594 21.5831 24.2186 21.0159C24.2518 20.4487 24.2186 19.679 24.2518 18.5852C25.4974 18.5203 27.1581 18.7553 29.1178 16.2476C30.4215 16.0126 31.7916 15.3441 32.3728 14.1085H32.6469C32.6136 14.2746 32.7174 14.4407 32.6801 14.6068C32.4434 15.0443 32.0988 15.5102 31.7584 16.1787C31.31 17.0497 30.8325 18.1517 30.2139 19.1199C29.288 20.5581 28.2625 22.0652 27.4736 23.4021C27.3698 23.4021 27.2702 23.4345 27.1996 23.4345L27.2121 23.4224ZM21.4244 25.8531C21.3841 25.8141 21.3379 25.7813 21.2874 25.7559C21.4903 23.7204 21.8217 21.699 22.2797 19.7033H22.6201C22.3461 21.575 21.7897 23.7141 21.4244 25.8531Z" fill="url(#paint0_linear_286_124)"/>
  <defs>
    <linearGradient id="paint0_linear_286_124" x1="0.764743" y1="14.546" x2="70.9768" y2="62.0426" gradientUnits="userSpaceOnUse">
      <stop offset="0.23" stop-color="#FFC700"/>
      <stop offset="0.51" stop-color="#FFEBA6"/>
      <stop offset="0.8" stop-color="#FFC700"/>
    </linearGradient>
  </defs>
</svg>
