<svg xmlns="http://www.w3.org/2000/svg" width="73" height="58" viewBox="0 0 73 58" fill="none">
  <path fill-rule="evenodd" clip-rule="evenodd" d="M46.6414 28.4542V28.1869C47.0854 27.9844 47.0854 27.8872 47.0155 27.4498C48.6598 26.8504 49.593 25.2465 50.3741 23.8411C50.6454 23.104 51.1551 22.1036 50.6454 21.0992C49.2559 18.3248 47.0484 17.9927 45.8275 15.4857C45.1492 14.0478 43.9612 14.7161 43.2171 14.951C42.3333 14.9186 39.1474 14.0479 38.9419 13.2459C39.5174 13.1447 40.4341 13.011 41.4083 12.9138C43.1719 13.2459 44.7299 13.2459 45.3095 12.7437C47.0361 12.7437 47.6486 13.4808 48.0884 14.2504C49.0709 17.292 48.9723 17.4905 51.5826 19.2968C52.0223 19.7021 52.359 20.2037 52.5654 20.7609C52.7718 21.3182 52.8421 21.9155 52.7707 22.5046C52.5651 25.3397 49.3792 27.9844 46.6291 28.4542H46.6414ZM4.91657 58C4.34105 57.7327 3.79843 57.3641 3.22291 57.1292C2.57284 56.9119 1.95599 56.608 1.38949 56.226C0.509771 55.3917 0.472768 54.2536 1.73068 52.5809C1.99917 52.2386 2.34363 51.9613 2.73766 51.7704C3.13169 51.5794 3.56485 51.4798 4.00396 51.4793C4.47671 51.4793 4.78091 51.2768 4.74802 51.0095C4.17251 51.0419 3.59288 51.0743 3.01737 51.1431V50.8434C5.83328 49.6041 6.91855 50.2075 8.6492 50.8434C8.88763 50.9406 9.19183 50.8434 9.49603 50.9406C10.8284 50.5781 12.1322 50.1206 13.3972 49.5717C16.6571 47.3643 19.7772 44.4604 23.0658 41.7832C24.221 40.8841 25.3391 39.8473 26.5929 39.1101C27.4151 38.6079 28.2373 38.1745 29.0019 37.6723C29.4458 37.3726 29.824 36.9393 30.2351 36.6395C31.5839 35.7495 33.0025 34.9667 34.4775 34.2986C35.2586 33.93 35.9697 33.4278 36.7837 33.0835C36.7411 33.0121 36.7171 32.9314 36.7138 32.8486C35.0695 33.2172 29.8282 34.4201 29.0841 36.0563C29.0142 36.0563 28.9813 36.19 28.8786 36.0563C28.8457 36.0239 28.8786 35.8579 28.8457 35.789C29.3276 35.233 29.7803 34.653 30.2022 34.0515C30.7738 33.6223 31.374 33.2312 31.9987 32.881C31.9987 32.8486 31.9 32.7474 31.9 32.715C29.3554 33.4845 28.3359 34.7198 27.7275 36.4938C27.5549 36.9919 26.7409 37.162 25.964 37.2592C23.4975 37.4941 22.6753 37.6642 21.2489 38.531C21.0433 38.6646 20.9776 38.9643 20.7391 39.098C20.6035 39.1992 20.4678 39.2681 20.3281 39.3653C20.3281 39.2316 20.1924 39.1992 20.2582 39.0656C21.0909 37.8552 22.0099 36.7048 23.0083 35.623C24.5334 34.4525 26.3298 33.6505 26.6382 32.9175C24.5005 33.0511 22.0916 33.6829 20.883 35.4893C20.7802 35.5217 20.6775 35.5217 20.5788 35.5582C20.8549 34.547 21.3996 33.6267 22.1569 32.892C22.9142 32.1573 23.8565 31.6348 24.887 31.3784C25.1912 31.2772 25.298 31.0423 25.5981 30.9451C25.9722 29.2723 25.4625 28.7053 24.6115 28.5717C23.3783 28.0695 22.0011 28.2031 21.4256 26.6317C22.3752 26.5993 22.7123 26.4656 23.07 25.8216C23.2056 25.5543 23.8181 25.688 24.4964 26.0241C24.9075 26.0241 25.2076 25.9553 25.6146 25.9553C25.5817 26.1213 25.5817 26.2914 25.5488 26.4575C25.0647 26.6634 24.6177 26.9451 24.2251 27.2918C24.1929 27.4119 24.1804 27.5364 24.1881 27.6604C26.9711 29.4303 28.5661 29.6004 30.7654 27.9277C30.971 26.9921 30.7654 26.5587 30.0871 26.4251C29.265 26.6924 27.9495 27.5267 26.9013 27.4943C26.9341 27.3607 26.9341 27.2594 26.967 27.1582C28.1222 26.9597 28.969 25.0885 30.0871 22.9825C31.2239 20.8636 32.4811 18.8096 33.8527 16.8303C34.8023 15.5626 35.6532 14.4002 36.6028 13.7238C36.6366 13.6228 36.6944 13.5312 36.7713 13.4565H37.0426C37.0426 13.7562 36.9399 15.1616 37.6182 15.1616C37.6592 15.0081 37.6826 14.8505 37.688 14.6918H38.4321C40.6396 18.1344 41.8934 18.0008 45.5932 19.5075C48.5776 21.812 46.7771 23.4847 45.2849 24.886C45.1401 25.0859 45.0148 25.2988 44.9108 25.5219C44.9331 25.8232 44.9221 26.1261 44.8779 26.4251C44.5408 27.6928 43.6241 29.3331 43.7597 29.9325C45.2918 29.6765 46.7923 29.2625 48.2364 28.6972C50.1726 27.9277 52.0718 28.2274 55.3605 28.3611V28.5312C53.7255 28.7117 52.1049 29.0013 50.5097 29.3979C47.7966 30.0986 45.0464 31.2043 42.5059 32.1398C40.1628 33.0066 37.9594 34.2783 35.7888 35.5136C32.8208 37.2087 29.9749 39.1032 27.2712 41.1838C22.9631 45.2623 19.3332 48.4012 14.9388 50.5396C12.4647 51.743 9.82264 52.5771 7.09941 53.0143C5.98127 53.3828 5.06456 53.9823 4.76035 54.6343C4.55892 55.0717 4.79324 55.7076 5.20022 56.4083C5.94839 56.4407 5.81273 55.0029 6.45813 53.9782C6.77528 53.7806 7.1336 53.656 7.50639 53.6137C8.76431 53.6137 9.77968 53.7109 10.7293 53.5448C11.3747 53.4436 11.9872 53.0791 12.7847 52.9454C12.7868 53.003 12.7741 53.0601 12.7477 53.1115C10.9855 53.7927 9.17099 54.3345 7.3214 54.7315C7.18574 55.0637 7.0172 55.4322 7.21863 55.6671C7.55983 55.9344 8.13535 55.6995 8.9164 55.7684C12.5463 56.8052 14.8853 55.9668 15.9377 55.1325C17.5302 53.3062 19.3224 51.6586 21.2818 50.2197C22.3029 49.3849 23.4173 48.6674 24.6033 48.0812C27.1849 46.9107 30.3379 46.3761 34.6132 45.8091C35.2586 45.639 35.6984 45.5742 36.1054 45.2056C36.3611 44.9548 36.5479 44.644 36.648 44.3024C37.0221 43.4357 37.0879 42.7674 37.3962 42.1315C37.9717 40.9165 38.9213 40.0255 41.2604 39.2559C42.991 38.7213 46.2838 39.021 48.6228 38.6889C49.0202 38.7023 49.4179 38.6792 49.8109 38.6201C50.1139 38.4755 50.3915 38.2841 50.633 38.053C52.4624 35.4124 54.9083 32.3829 57.9585 30.7993C58.7723 30.3773 59.6389 30.0627 60.536 29.8637C60.5031 30.0338 60.573 29.9973 60.536 30.131C60.3674 30.3335 60.0961 30.536 59.8947 30.7993C58.8752 32.1034 57.6872 34.0758 58.8423 35.8498C58.8529 35.9298 58.839 36.0111 58.8024 36.0832C58.7658 36.1554 58.7081 36.2151 58.6368 36.2548C57.7571 36.6193 57.0788 38.1908 57.0788 39.3936C55.6852 41.7022 52.5322 42.9699 48.6311 42.5042C46.4934 42.2369 44.253 42.2368 42.9992 42.8363C42.4895 43.0712 42.3538 43.5045 42.1524 43.9055C42.0496 44.509 41.8811 45.7767 41.5399 46.2465C40.9846 46.8922 40.2796 47.3965 39.4845 47.7167C38.5552 48.2375 37.5478 48.6094 36.5 48.8183C34.7365 49.1221 32.6687 48.9196 30.971 48.9196C28.5947 49.5158 26.3035 50.4029 24.1511 51.5603C22.5931 52.4635 21.2735 53.7676 21.3722 54.6019C21.3722 54.768 21.6065 54.6343 21.7093 54.768C24.4263 54.508 27.158 54.4295 29.8857 54.5331C38.6048 53.0629 47.1512 51.1917 56.7869 52.913C62.131 53.0831 67.5408 53.4476 73 53.8162V53.9823C72.4132 53.9337 71.8233 53.9337 71.2365 53.9823C70.3198 54.1159 69.9498 54.3184 68.5233 54.3184C61.7405 54.1524 53.0543 53.6177 46.9826 55.254C47.0155 55.3553 47.0155 55.4525 47.0484 55.5902C53.6257 55.7238 60.2811 56.4569 66.8626 56.623V56.7931C66.3857 56.7931 65.8759 56.8255 65.3662 56.8579C64.544 56.8903 63.874 57.0928 62.9943 57.1576C61.909 57.2264 59.7385 57.0928 58.5834 57.1252C57.7365 57.194 57.2967 57.3925 56.717 57.4613C56.0405 57.5194 55.3612 57.541 54.6822 57.5261C44.8779 57.4613 45.0135 57.0928 43.5213 57.5261C43.657 57.6274 43.7597 57.6274 43.8954 57.8623C40.6067 57.8623 37.2112 57.9595 33.9554 57.9271C33.1086 57.595 32.0562 57.7286 31.0779 57.7286C27.9906 56.9186 23.8181 56.6918 20.4596 57.5261C18.322 57.3277 16.6242 57.5585 16.2501 57.761C15.4732 57.8947 14.8607 57.6922 14.1947 57.8258C12.1927 58.162 10.906 57.761 9.17539 57.3601C7.73719 57.365 6.30762 57.5793 4.93301 57.996L4.91657 58ZM2.45007 54.8247C1.46759 53.6866 2.48296 52.5161 3.68332 52.3501C4.66992 52.2164 5.58252 51.6818 5.85383 51.945C5.73001 52.0614 5.59191 52.1621 5.44275 52.2447C4.90012 52.5121 4.11907 52.8482 3.7121 53.6178C3.54525 53.9296 3.34098 54.2206 3.10369 54.4845C2.90513 54.6438 2.67364 54.7586 2.42541 54.8206L2.45007 54.8247ZM35.2873 27.4498V21.3341C35.1846 21.3341 35.1188 21.3665 35.016 21.3665C33.5896 22.8731 32.5043 23.7398 32.1672 26.4129C31.5942 26.3125 31.0353 26.1453 30.5023 25.9148C30.3338 24.7443 31.2834 24.2421 32.233 23.2741C33.014 22.5046 33.7622 21.6014 34.5392 20.767C35.4751 19.8131 36.2845 18.7462 36.9481 17.5917C37.0509 17.6241 37.2893 17.6241 37.3592 17.693C37.462 20.4997 38.8884 21.9011 39.0898 22.4721C39.0418 22.6782 38.9493 22.8716 38.8185 23.0392C38.5801 23.4077 37.9717 23.7074 37.3263 24.1773C36.3438 25.9796 36.3438 25.9796 35.6285 27.4174C35.5299 27.4174 35.4271 27.4498 35.2914 27.4498H35.2873ZM37.018 30.3578C36.9152 30.3254 36.7097 30.1917 36.6069 30.1593C37.0796 29.2885 37.9964 29.1549 38.1649 27.8872C38.2014 27.4474 38.3844 27.0317 38.6855 26.705C38.9866 26.3783 39.3889 26.1589 39.8298 26.0808C40.2497 25.9476 40.6614 25.7908 41.063 25.611C41.2741 25.4755 41.4531 25.2969 41.5878 25.0873C41.7226 24.8776 41.81 24.6418 41.8441 24.396C41.8441 23.8978 41.8441 23.3267 41.8112 22.861C40.9274 21.6905 38.7897 19.9206 38.9583 18.3491C39.6037 18.8473 39.8092 19.3819 42.8595 20.3215C44.0475 20.9533 44.9971 21.9416 44.216 22.9946C42.5717 23.9626 42.2182 24.4972 42.0455 25.935C41.9718 26.6713 41.7541 27.3865 41.4042 28.0411C40.9491 28.7792 40.3012 29.3835 39.5283 29.791C38.7553 30.1985 37.8856 30.3942 37.0098 30.3578H37.018ZM19.0044 31.3946C17.8163 29.6571 17.0024 28.3854 16.801 27.385C16.4269 25.6799 17.2408 24.6754 16.9366 22.9055C16.3241 21.5001 15.5431 19.9651 15.0333 18.661C14.1865 14.5177 18.7988 11.5408 20.1924 8.0658C21.6517 3.65519 21.4256 5.25905 21.8367 4.22221C21.8696 4.12096 21.8038 4.12096 21.8038 3.9873C19.9375 4.25461 18.6796 4.69202 17.9027 5.36029C15.6294 7.23146 16.7804 10.5404 14.2358 13.9466C11.6583 15.7206 11.5925 16.8911 11.794 18.4018C11.9625 19.8072 12.6449 21.2774 13.4918 22.78C14.0344 23.7844 14.725 24.7848 15.0868 25.9229C13.9316 25.0845 12.7107 23.2822 11.6583 21.5082C10.3716 19.3697 9.86189 16.9964 10.4703 15.194C12.1815 13.1541 13.3273 10.7122 13.7959 8.10629C14.1001 6.63609 14.6181 5.4656 15.8514 4.59887C16.6324 4.06425 18.0589 3.52964 19.8553 3.02742C21.5202 2.5252 23.4852 2.09183 24.9445 1.15625C26.9999 -0.115494 28.0646 -0.0587921 28.9156 0.0546119C30.0337 0.253069 31.6616 1.055 32.5413 1.45596C32.5413 1.55722 32.5783 1.69087 32.5783 1.79213C30.0008 0.45558 28.9484 0.520377 26.2353 1.85692C26.2164 1.99129 26.2164 2.12757 26.2353 2.26194C28.5744 2.26194 29.524 2.86541 31.5794 4.0359C32.6317 3.63089 34.9379 5.16995 35.5504 5.73697C35.719 6.14198 36.0602 6.44169 35.8875 6.8062C35.4764 7.74583 35.2092 9.31324 34.3953 10.0828C33.5813 10.8523 33.0757 11.5206 32.9729 12.4237C32.8702 12.4237 32.7674 12.3549 32.7016 12.3549C33.1415 9.54815 35.5504 7.81064 33.0058 5.46966C28.0728 1.49242 24.3197 1.92983 22.4205 5.90707C22.1543 6.40061 21.9275 6.91383 21.7422 7.44207C21.5461 8.45826 21.4089 9.4846 21.3311 10.5161C18.0095 18.2722 16.2419 15.6315 19.399 23.4766C19.4648 24.481 19.5675 25.449 19.2962 26.2509C18.6179 28.4259 18.1082 29.4262 19.1606 31.3987L19.0044 31.3946ZM35.0366 10.2367C35.5792 6.9277 39.616 6.46194 37.4784 2.75201C36.5288 2.71961 33.4087 3.38788 33.2073 2.05134C33.9513 2.11614 34.6995 2.14853 35.3778 2.14853C35.6121 2.14853 35.6121 1.91768 35.8505 1.91768C38.3622 1.91768 40.6355 3.08412 39.4475 6.22703C39.3447 6.46194 39.3118 6.86291 39.1762 7.13022C39.1063 7.19502 39.1433 7.33272 38.9706 7.46637C38.5151 7.49436 38.0817 7.66945 37.7374 7.96455C37.3674 8.90013 36.7549 9.7709 35.9738 9.8033C35.6965 9.87181 35.4548 10.0392 35.2955 10.2731C35.1928 10.2731 35.127 10.2367 35.0242 10.2367H35.0366ZM30.5969 11.0994C31.0737 10.6295 31.5136 8.62471 30.2228 8.325C27.9166 8.02529 28.1674 7.65673 26.7985 5.91922C24.4553 5.78556 25.0349 10.0301 22.6589 10.7794C22.5232 10.8118 22.6918 10.5121 22.5561 10.5445C23.1686 9.80736 23.9497 9.374 24.1511 8.47081C24.3895 7.43803 24.6609 6.40119 24.9733 5.96377C25.0689 5.81075 25.1977 5.68053 25.3506 5.58248C25.5034 5.48443 25.6764 5.421 25.8571 5.39676C26.2459 5.33603 26.6443 5.38227 27.0081 5.53041C27.4897 5.74952 27.9447 6.02123 28.3647 6.34043C28.8087 6.64015 30.0296 6.84266 30.5722 6.87506C32.2165 7.00871 32.3358 7.17477 32.9113 8.49511C32.8943 8.66769 32.84 8.83467 32.7521 8.98487C32.6642 9.13506 32.5446 9.26498 32.4015 9.36589C31.9905 9.6332 31.7232 10.2691 31.5794 11.1034C31.3779 11.1358 30.8682 11.4031 30.6668 11.3707C30.5311 11.3383 30.7325 11.0386 30.5969 11.1034V11.0994ZM39.0117 11.8365C39.0385 11.7724 39.0498 11.7031 39.0446 11.634C41.5563 10.6295 44.845 7.58383 43.0814 4.78113C41.7906 3.37978 40.3683 2.57785 39.5872 0.937546C39.7995 0.888822 40.0204 0.888822 40.2326 0.937546C41.9263 1.47216 44.6764 4.88238 45.626 5.98402C46.5058 7.32462 46.3043 8.52751 45.3547 9.32944C43.8625 10.666 40.8739 11.8 39.0117 11.8365ZM34.0787 12.5371C34.7899 11.0345 36.6562 10.3622 38.0827 9.62915C39.6777 8.45866 40.3889 6.79405 40.9603 5.01604C42.0825 5.48585 41.6385 7.59193 41.1987 8.52751C39.6037 10.2974 36.4507 12.0673 34.0746 12.5371H34.0787ZM42.2223 12.8693C42.1195 12.8045 41.544 12.602 41.4001 12.5371C41.4001 12.4683 41.4988 12.4359 41.4988 12.4035C43.4679 10.666 43.3322 10.6984 45.9097 10.2974C46.2509 7.99289 47.0278 8.19135 48.964 6.95605C49.4039 6.35258 48.8613 5.65191 46.4194 4.61508C46.1472 4.46359 45.9322 4.22906 45.8069 3.9468C46.6084 4.10412 47.3557 4.46107 47.9774 4.98363C48.7996 4.61507 50.2507 5.55065 50.6947 5.75316C50.8961 7.89163 50.2178 8.45866 48.59 9.4955C48.6927 11.0346 48.5201 11.1156 47.9446 11.9013C43.9776 11.5327 44.0763 12.5372 42.2141 12.8693H42.2223ZM21.5613 19.2887C20.9159 17.9157 21.0886 16.883 21.2242 15.4776H21.5284C21.4295 16.7558 21.5321 18.0414 21.8326 19.2887H21.5613ZM52.6679 19.957C52.7378 18.6205 52.8364 17.3487 52.4295 16.1134C51.9549 15.9265 51.5272 15.6405 51.1757 15.275C50.4339 14.2255 49.3964 13.4131 48.1912 12.9381V12.7721C49.7163 12.8045 49.9219 12.9057 51.5497 14.2747C52.2609 14.8741 54.9412 16.6804 55.2824 17.1098C55.3951 17.305 55.4638 17.5219 55.4838 17.7456C55.5537 18.4139 55.0439 19.2523 54.0943 19.7505C53.6518 19.9626 53.1532 20.0334 52.6679 19.953V19.957ZM26.9547 23.432C27.344 22.4405 27.5514 21.3886 27.5672 20.3256C27.0246 20.0218 26.4819 20.2243 25.9229 20.2567V20.0907C26.634 19.8882 27.8878 19.3211 28.192 18.5516C28.2315 18.4313 28.246 18.3044 28.2347 18.1785C28.2234 18.0526 28.1865 17.9302 28.1263 17.8185C23.7853 20.2243 25.2775 19.2887 25.2487 20.3904C25.2487 20.8237 25.4172 22.1603 25.2117 22.9298C25.113 22.8974 24.9404 22.865 24.8417 22.8286C24.6691 21.8282 24.2292 21.5933 23.9908 21.0263C24.0237 20.4592 23.9908 19.6897 24.0237 18.5962C25.2569 18.5314 26.9013 18.7663 28.8416 16.2592C30.1324 16.0243 31.4889 15.356 32.0644 14.1208H32.3358C32.3029 14.2868 32.4056 14.4529 32.3686 14.6189C32.1343 15.0563 31.7931 15.5221 31.456 16.1904C31.0121 17.0612 30.5393 18.1628 29.9268 19.1308C29.0142 20.5686 27.9947 22.0752 27.2137 23.4118C27.1109 23.4118 27.0122 23.4442 26.9424 23.4442L26.9547 23.432ZM21.2242 25.8621C21.1843 25.8231 21.1385 25.7903 21.0885 25.7649C21.2895 23.73 21.6176 21.7092 22.071 19.714H22.4081C22.1368 21.5852 21.586 23.7236 21.2242 25.8621Z" fill="url(#paint0_linear_286_127)"/>
  <defs>
    <linearGradient id="paint0_linear_286_127" x1="0.768751" y1="14.5582" x2="70.7067" y2="61.4148" gradientUnits="userSpaceOnUse">
      <stop offset="0.23" stop-color="#B4B4B4"/>
      <stop offset="0.46" stop-color="white"/>
      <stop offset="0.8" stop-color="#B3B3B3"/>
    </linearGradient>
  </defs>
</svg>
