<svg xmlns="http://www.w3.org/2000/svg" width="167" height="15" viewBox="0 0 167 15" fill="none">
  <path d="M113.389 0.0853338C113.268 0.0307575 113.136 0.00354371 113.004 0.00563026C112.811 0.00337384 112.623 0.0583967 112.462 0.163752C112.3 0.269107 112.174 0.420066 112.098 0.597639L107.568 11.4476L102.881 0.597639C102.807 0.42097 102.682 0.270404 102.523 0.165003C102.364 0.0596016 102.177 0.00412758 101.986 0.00563026C101.853 0.00238519 101.722 0.0296512 101.601 0.0853338C101.363 0.190309 101.176 0.385621 101.081 0.628735C100.985 0.87185 100.989 1.14304 101.092 1.38321L106.674 14.3394C106.749 14.5152 106.874 14.6649 107.033 14.7701C107.192 14.8753 107.378 14.9314 107.568 14.9314C107.76 14.9304 107.947 14.8727 108.106 14.7654C108.265 14.658 108.389 14.5059 108.463 14.328L113.943 1.37181C113.993 1.25089 114.017 1.12128 114.016 0.990597C114.015 0.859919 113.987 0.730844 113.936 0.610946C113.884 0.491049 113.809 0.382752 113.715 0.29248C113.621 0.202207 113.51 0.131794 113.389 0.0853338Z" fill="white"/>
  <path d="M143.101 1.97528H146.022C146.16 1.99017 146.299 1.97581 146.43 1.9331C146.562 1.8904 146.683 1.82031 146.786 1.72742C146.889 1.63453 146.971 1.52091 147.028 1.39394C147.084 1.26698 147.113 1.12951 147.113 0.990491C147.113 0.851471 147.084 0.714004 147.028 0.587039C146.971 0.460074 146.889 0.346454 146.786 0.253563C146.683 0.160672 146.562 0.0905834 146.43 0.0478762C146.299 0.00516902 146.16 -0.00918649 146.022 0.00569654H142.795C140.984 0.119919 139.287 0.936176 138.062 2.2827C136.746 3.70314 136.014 5.57254 136.014 7.51413C136.014 9.45571 136.746 11.3251 138.062 12.7455C139.293 14.0759 140.991 14.8722 142.795 14.9656H146.022C146.16 14.9805 146.299 14.9661 146.43 14.9234C146.562 14.8807 146.683 14.8106 146.786 14.7177C146.889 14.6249 146.971 14.5112 147.028 14.3843C147.084 14.2573 147.113 14.1198 147.113 13.9808C147.113 13.8418 147.084 13.7043 147.028 13.5774C146.971 13.4504 146.889 13.3368 146.786 13.2439C146.683 13.151 146.562 13.0809 146.43 13.0382C146.299 12.9955 146.16 12.9811 146.022 12.996H143.078C142.402 12.9849 141.736 12.8359 141.119 12.558C140.502 12.2801 139.947 11.8791 139.489 11.3793C138.515 10.3261 137.973 8.94106 137.973 7.50273C137.973 6.0644 138.515 4.67939 139.489 3.62613C139.947 3.11793 140.504 2.70932 141.125 2.42543C141.746 2.14154 142.419 1.98835 143.101 1.97528Z" fill="white"/>
  <path d="M49.2996 7.06442L44.6911 6.03977C44.1944 5.9472 43.7505 5.67053 43.4471 5.26449C43.1437 4.85844 43.003 4.35263 43.0528 3.84723C43.1026 3.34183 43.3394 2.87369 43.7162 2.53546C44.093 2.19722 44.5824 2.01356 45.0874 2.02086H49.7639C50.0055 1.9947 50.229 1.87969 50.3913 1.69791C50.5537 1.51612 50.6435 1.2804 50.6435 1.03606C50.6435 0.791728 50.5537 0.556004 50.3913 0.374219C50.229 0.192434 50.0055 0.0774285 49.7639 0.0512706H45.0534C44.0678 0.0505622 43.1171 0.418073 42.3859 1.08252C41.6546 1.74696 41.195 2.66091 41.0962 3.64693C40.9974 4.63294 41.2665 5.62069 41.8513 6.41842C42.4361 7.21614 43.2949 7.76692 44.2608 7.96384L48.858 8.97713C49.3064 9.08196 49.7066 9.33553 49.9942 9.69696C50.2818 10.0584 50.44 10.5067 50.4433 10.9695C50.4433 11.507 50.2309 12.0224 49.8529 12.4025C49.4749 12.7825 48.9623 12.996 48.4278 12.996H43.7513C43.5097 13.0222 43.2862 13.1372 43.1238 13.319C42.9615 13.5008 42.8716 13.7365 42.8716 13.9808C42.8716 14.2252 42.9615 14.4609 43.1238 14.6427C43.2862 14.8245 43.5097 14.9395 43.7513 14.9656H48.4278C49.179 14.9635 49.9143 14.7481 50.5489 14.344C51.1836 13.9399 51.6918 13.3637 52.0149 12.6818C52.338 12 52.4629 11.2401 52.3752 10.49C52.2874 9.73986 51.9906 9.02992 51.5189 8.44203C50.9514 7.74824 50.1708 7.26364 49.2996 7.06442Z" fill="white"/>
  <path d="M26.3723 0.0513358H22.9753C22.8465 0.0498295 22.7187 0.0740315 22.5992 0.122562C22.4797 0.171092 22.3711 0.242981 22.2794 0.334051C22.1878 0.42512 22.1151 0.533568 22.0654 0.653108C22.0158 0.772647 21.9902 0.900889 21.9902 1.03043V13.998C21.9932 14.2587 22.0983 14.5077 22.2827 14.691C22.4672 14.8743 22.716 14.9771 22.9753 14.9771H26.3723C27.2978 14.9557 28.209 14.7424 29.0487 14.3506C29.8885 13.9588 30.6387 13.3969 31.2525 12.7001C32.4957 11.2526 33.1797 9.40389 33.1797 7.49142C33.1797 5.57895 32.4957 3.73027 31.2525 2.28279C30.6365 1.59214 29.8847 1.0373 29.0448 0.653247C28.2049 0.26919 27.2949 0.0642522 26.3723 0.0513358ZM29.7692 11.4364C29.3272 11.9345 28.7867 12.3344 28.1823 12.6108C27.578 12.8872 26.9229 13.0339 26.259 13.0416H23.9038V2.05508H26.2817C26.9419 2.06522 27.5928 2.21315 28.1931 2.48949C28.7935 2.76582 29.3302 3.16454 29.7692 3.66037C30.6961 4.74135 31.206 6.12112 31.206 7.54837C31.206 8.97561 30.6961 10.3554 29.7692 11.4364Z" fill="white"/>
  <path d="M125.323 0.00568307C125.194 0.00417676 125.066 0.0283788 124.947 0.076909C124.827 0.125439 124.719 0.197328 124.627 0.288398C124.535 0.379467 124.463 0.487916 124.413 0.607455C124.363 0.726995 124.338 0.855236 124.338 0.984779V13.9523C124.364 14.1953 124.478 14.42 124.659 14.5832C124.84 14.7465 125.074 14.8368 125.317 14.8368C125.56 14.8368 125.795 14.7465 125.976 14.5832C126.156 14.42 126.271 14.1953 126.297 13.9523V0.984779C126.298 0.855776 126.274 0.72777 126.226 0.608289C126.177 0.488808 126.106 0.380283 126.015 0.289058C125.924 0.197833 125.816 0.125747 125.697 0.0770827C125.579 0.0284183 125.451 0.00415625 125.323 0.00568307Z" fill="white"/>
  <path d="M90.0963 8.08899C90.2213 7.992 90.3387 7.88543 90.4473 7.77021C91.2546 6.90494 91.7038 5.76306 91.7038 4.57669C91.7038 3.39032 91.2546 2.24847 90.4473 1.38319C90.0595 0.960361 89.5909 0.620462 89.0695 0.383773C88.5482 0.147084 87.9847 0.0184706 87.4128 0.00561523H82.7589C82.5007 0.00561523 82.253 0.108776 82.0704 0.292395C81.8878 0.476014 81.7852 0.725034 81.7852 0.984711V13.9523C81.8112 14.1952 81.9256 14.4199 82.1064 14.5832C82.2872 14.7464 82.5216 14.8367 82.7646 14.8367C83.0076 14.8367 83.242 14.7464 83.4228 14.5832C83.6036 14.4199 83.7181 14.1952 83.7441 13.9523V9.14779H87.4014C87.723 9.14309 88.0426 9.09719 88.3526 9.01118L90.6172 14.3394C90.6932 14.5169 90.8198 14.6679 90.981 14.7732C91.1422 14.8786 91.3308 14.9336 91.5231 14.9314C91.6555 14.9324 91.7867 14.9053 91.908 14.8517C92.1461 14.7467 92.3332 14.5514 92.4287 14.3083C92.5241 14.0651 92.5201 13.794 92.4176 13.5538L90.0963 8.08899ZM89.0206 6.41539C88.8086 6.65477 88.5488 6.84645 88.258 6.9779C87.9673 7.10935 87.6523 7.17758 87.3335 7.17817H83.7441V1.9752H87.3448C87.6602 1.98003 87.9713 2.04913 88.2593 2.17828C88.5473 2.30744 88.8063 2.49396 89.0206 2.72662C89.4872 3.22601 89.7465 3.88578 89.7453 4.57099C89.7559 5.26471 89.4957 5.935 89.0206 6.43815V6.41539Z" fill="white"/>
  <path d="M70.3288 1.9752C70.5704 1.94904 70.7938 1.83404 70.9562 1.65225C71.1186 1.47047 71.2084 1.23475 71.2084 0.990409C71.2084 0.746073 71.1186 0.510349 70.9562 0.328564C70.7938 0.146779 70.5704 0.0317732 70.3288 0.00561523H62.9914C62.823 0.00740992 62.6581 0.0535476 62.5131 0.13945C62.368 0.225353 62.2479 0.348008 62.1647 0.495163C62.0702 0.640863 62.0191 0.810739 62.0176 0.984711V13.9523C62.0176 14.212 62.1202 14.461 62.3028 14.6446C62.4854 14.8282 62.7331 14.9314 62.9914 14.9314H70.3288C70.5704 14.9052 70.7938 14.7902 70.9562 14.6084C71.1186 14.4266 71.2084 14.1909 71.2084 13.9466C71.2084 13.7022 71.1186 13.4665 70.9562 13.2847C70.7938 13.1029 70.5704 12.9879 70.3288 12.9618H63.9765V8.40777H69.1964C69.4381 8.38161 69.6615 8.26657 69.8239 8.08479C69.9863 7.903 70.0761 7.66728 70.0761 7.42294C70.0761 7.17861 69.9863 6.94292 69.8239 6.76113C69.6615 6.57935 69.4381 6.46431 69.1964 6.43815H63.9765V1.88414L70.3288 1.9752Z" fill="white"/>
  <path d="M166.12 1.9752C166.361 1.94904 166.585 1.83404 166.747 1.65225C166.91 1.47047 166.999 1.23475 166.999 0.990409C166.999 0.746073 166.91 0.510349 166.747 0.328564C166.585 0.146779 166.361 0.0317732 166.12 0.00561523H158.782C158.614 0.00740992 158.449 0.0535476 158.304 0.13945C158.159 0.225353 158.039 0.348008 157.956 0.495163C157.861 0.640863 157.81 0.810739 157.809 0.984711V13.9523C157.809 14.212 157.911 14.461 158.094 14.6446C158.276 14.8282 158.524 14.9314 158.782 14.9314H166.12C166.361 14.9052 166.585 14.7902 166.747 14.6084C166.91 14.4266 166.999 14.1909 166.999 13.9466C166.999 13.7022 166.91 13.4665 166.747 13.2847C166.585 13.1029 166.361 12.9879 166.12 12.9618H159.768V8.40777H164.987C165.229 8.38161 165.453 8.26657 165.615 8.08479C165.777 7.903 165.867 7.66728 165.867 7.42294C165.867 7.17861 165.777 6.94292 165.615 6.76113C165.453 6.57935 165.229 6.46431 164.987 6.43815H159.768V1.88414L166.12 1.9752Z" fill="white"/>
  <path d="M7.35839 0.643363C7.28099 0.46829 7.15474 0.319535 6.99497 0.215139C6.83519 0.110743 6.64873 0.0551758 6.45818 0.0551758C6.26764 0.0551758 6.08119 0.110743 5.92142 0.215139C5.76164 0.319535 5.63539 0.46829 5.558 0.643363L1.67417 9.85385L0.0776057 13.6337C0.0273761 13.7525 0.00101428 13.8801 2.86903e-05 14.0092C-0.000956899 14.1383 0.0234599 14.2663 0.0718695 14.3859C0.120279 14.5054 0.191728 14.6142 0.282105 14.7059C0.372481 14.7976 0.480002 14.8704 0.598477 14.9202C0.719458 14.9748 0.850876 15.002 0.98346 14.9999C1.17666 14.9997 1.36554 14.9424 1.5266 14.8351C1.68767 14.7278 1.81381 14.5753 1.88931 14.3965L3.22543 11.2201H9.78154L11.1516 14.4079C11.2269 14.5836 11.3517 14.7334 11.5107 14.8386C11.6697 14.9438 11.8558 14.9999 12.0462 14.9999C12.1824 15.0022 12.3176 14.975 12.4425 14.9202C12.6812 14.8146 12.8685 14.618 12.9633 14.3737C13.0591 14.1325 13.0591 13.8635 12.9633 13.6223L7.35839 0.643363ZM4.06335 9.22769L6.47517 3.53517L8.92097 9.22769H4.06335Z" fill="white"/>
</svg>
