<svg width="60" height="60" viewBox="0 0 60 60" fill="none" xmlns="http://www.w3.org/2000/svg">
<circle cx="30" cy="30" r="30" fill="white" fill-opacity="0.8"/>
<path d="M26.1211 40.2305C25.8477 40.2305 25.6133 40.1367 25.418 39.9492C25.2227 39.7617 25.125 39.5312 25.125 39.2578V21.8555C25.125 21.5742 25.2227 21.3398 25.418 21.1523C25.6133 20.9648 25.8477 20.8711 26.1211 20.8711C26.4023 20.8711 26.6406 20.9648 26.8359 21.1523C27.0312 21.3398 27.1289 21.5742 27.1289 21.8555V39.2578C27.1289 39.5312 27.0312 39.7617 26.8359 39.9492C26.6406 40.1367 26.4023 40.2305 26.1211 40.2305ZM33.8672 40.2305C33.5938 40.2305 33.3594 40.1367 33.1641 39.9492C32.9688 39.7617 32.8711 39.5312 32.8711 39.2578V21.8555C32.8711 21.5742 32.9688 21.3398 33.1641 21.1523C33.3594 20.9648 33.5938 20.8711 33.8672 20.8711C34.1484 20.8711 34.3867 20.9648 34.582 21.1523C34.7773 21.3398 34.875 21.5742 34.875 21.8555V39.2578C34.875 39.5312 34.7773 39.7617 34.582 39.9492C34.3867 40.1367 34.1484 40.2305 33.8672 40.2305Z" fill="#838282"/>
</svg>
