<svg width="60" height="60" viewBox="0 0 60 60" fill="none" xmlns="http://www.w3.org/2000/svg">
<circle cx="30" cy="30" r="29.5" stroke="white"/>
<mask id="mask0_606_181" style="mask-type:alpha" maskUnits="userSpaceOnUse" x="9" y="9" width="42" height="42">
<rect x="30" y="9.09863" width="29.3468" height="29.559" transform="rotate(45 30 9.09863)" fill="#D9D9D9"/>
</mask>
<g mask="url(#mask0_606_181)">
<path fill-rule="evenodd" clip-rule="evenodd" d="M24.9054 26.4332L24.9055 26.4331H17.7573V33.2668H19.6526V33.2669H26.4398L27.5094 34.4057H27.4912L27.902 34.8239L28.176 35.1156L28.1815 35.1082L31.2618 38.243L31.2618 21.4569L28.39 24.3795L26.2865 26.4001L26.3085 26.4332H24.9054ZM17.7573 34.4057H26.0247L31.2618 39.7355L32.2095 40.6999V39.2075V20.4924V19L31.2618 19.9644L26.0247 25.2942H17.7573H16.8096V26.4331V33.2668V34.4057H17.7573Z" fill="white"/>
<path d="M36.0048 21.4903C37.8525 22.0813 39.3568 23.1391 40.5178 24.6635C41.6787 26.188 42.2592 27.9168 42.2592 29.8501C42.2592 31.7833 41.6787 33.5122 40.5178 35.0367C39.3568 36.5611 37.8525 37.6189 36.0048 38.2099L35.9897 37.0349C37.5313 36.4901 38.7748 35.5633 39.7203 34.2543C40.6658 32.9453 41.1385 31.4772 41.1385 29.8501C41.1385 28.223 40.6658 26.7549 39.7203 25.4459C38.7748 24.1369 37.5313 23.2101 35.9897 22.6653L36.0048 21.4903ZM36.0048 25.6105C36.7519 26.0939 37.3516 26.7075 37.8037 27.4516C38.2558 28.1957 38.4818 29.0068 38.4818 29.8848C38.4818 30.7628 38.2558 31.5724 37.8037 32.3135C37.3516 33.0546 36.752 33.6567 36.0048 34.1199L36.0048 32.7787C36.4227 32.4011 36.754 31.9666 36.9986 31.4752C37.2433 30.9839 37.3656 30.4552 37.3656 29.8894C37.3656 29.3174 37.2466 28.7825 37.0085 28.2846C36.7703 27.7867 36.4308 27.3575 35.9897 26.997L36.0048 25.6105Z" fill="white"/>
</g>
</svg>
