<svg width="137" height="66" viewBox="0 0 137 66" fill="none" xmlns="http://www.w3.org/2000/svg">
<path d="M67.205 35.2534C65.5522 35.1961 63.8978 35.1668 62.247 35.0732C60.8923 34.9965 59.5408 34.8503 58.1894 34.7229C56.5233 34.5637 54.8699 34.3109 53.2241 34.0064C49.3331 33.2871 45.5268 32.2742 41.9045 30.6406C40.1111 29.8318 38.4011 28.8774 36.8653 27.6301C35.9504 26.8869 35.1265 26.0545 34.4807 25.059C33.8168 24.0356 33.4058 22.9271 33.3884 21.6906C33.3717 20.3831 33.7994 19.2148 34.5066 18.1391C35.3156 16.91 36.3778 15.9333 37.5538 15.0748C39.261 13.8281 41.1309 12.8856 43.0774 12.0882C45.6669 11.0275 48.3445 10.2607 51.0719 9.65886C52.8293 9.27101 54.6018 8.96754 56.383 8.72266C57.3946 8.58383 58.4091 8.47365 59.4255 8.3864C60.8202 8.26666 62.2163 8.14725 63.6146 8.08898C65.4773 8.01192 67.3422 7.95874 69.2074 8.04249C70.0293 8.07911 70.8513 8.08738 71.6701 8.13642C72.731 8.20011 73.7911 8.27887 74.8504 8.3727C75.741 8.45072 76.6318 8.53702 77.518 8.65579C78.6226 8.80386 79.7256 8.97009 80.8235 9.16242C83.0953 9.55856 85.3398 10.0741 87.5455 10.7479C90.0285 11.5061 92.4456 12.4315 94.7165 13.7094C96.2412 14.5666 97.6689 15.5563 98.8746 16.8421C99.6112 17.6277 100.229 18.4961 100.617 19.5106C101.301 21.3041 101.102 23.0262 100.159 24.675C99.5091 25.8125 98.6195 26.741 97.618 27.5664C96.2652 28.6809 94.7664 29.5605 93.1943 30.3174C90.4963 31.6163 87.6653 32.528 84.7673 33.2435C82.8559 33.715 80.9264 34.0914 78.9785 34.3726C77.677 34.5608 76.3691 34.7048 75.0613 34.8414C72.4503 35.1137 69.8305 35.2178 67.205 35.2534ZM61.0668 24.6957C61.0849 24.5097 61.0874 24.4047 61.106 24.3028C61.516 22.0313 61.9269 19.7591 62.339 17.4863C62.7575 15.1724 63.1752 12.8584 63.5918 10.5444C63.6551 10.2005 63.7167 9.85661 63.7768 9.51238C63.8273 9.22579 63.7897 9.18217 63.4884 9.18408C63.3408 9.18408 63.1932 9.18854 63.0459 9.19968C62.332 9.25318 61.6163 9.29171 60.905 9.36909C59.4726 9.52544 58.0392 9.68147 56.6118 9.87859C54.4425 10.1773 52.3042 10.6368 50.1943 11.2208C47.7843 11.8873 45.4383 12.7248 43.2146 13.8855C41.7604 14.6452 40.3871 15.5276 39.1892 16.6648C38.4956 17.3236 37.8858 18.0519 37.4334 18.9018C36.4875 20.6786 36.4654 22.4654 37.3948 24.2569C37.7833 25.0062 38.2952 25.6638 38.8807 26.2631C40.0377 27.446 41.3905 28.3587 42.8324 29.1436C45.15 30.4049 47.6114 31.2956 50.144 31.9971C53.0253 32.7934 55.9666 33.3502 58.9383 33.6619C60.2661 33.8023 61.5976 33.9348 62.9308 34.0173C64.2127 34.0966 65.4988 34.1341 66.7832 34.1411C69.0594 34.1539 71.3324 34.0819 73.5982 33.8546C74.8122 33.732 76.0271 33.6125 77.2357 33.447C78.9236 33.2158 80.5978 32.9038 82.2581 32.5111C84.6386 31.9513 86.9727 31.245 89.2242 30.2795C90.993 29.521 92.6859 28.6236 94.2116 27.4336C95.2517 26.6219 96.1811 25.7029 96.8501 24.5492C97.9436 22.6625 97.984 20.7535 96.9351 18.8327C96.5557 18.1401 96.0708 17.5271 95.5217 16.9663C94.4942 15.9139 93.3058 15.0767 92.0381 14.3491C89.9804 13.1674 87.7893 12.3028 85.5298 11.6064C82.4036 10.6431 79.2106 9.99609 75.9638 9.62861C74.4062 9.4522 72.8439 9.2847 71.279 9.20955C69.46 9.1223 67.6358 9.13886 65.814 9.11402C65.4978 9.10988 65.4823 9.13026 65.4251 9.44169C65.3448 9.87922 65.2696 10.3177 65.1896 10.7552C65.1295 11.0839 65.1279 11.0826 65.4242 11.251C66.3093 11.7535 66.8686 12.5038 67.094 13.4982C67.2204 14.0514 67.1967 14.6169 67.1547 15.177C67.0706 16.3002 66.7472 17.3625 66.2777 18.3779C65.1396 20.841 63.4379 22.8497 61.339 24.5333C61.2793 24.582 61.204 24.6155 61.0668 24.6957Z" fill="#656565"/>
<path d="M67.2313 37.639C67.3817 37.6291 67.4649 37.6189 67.5474 37.6189C70.6655 37.6253 73.7841 37.5937 76.9013 37.6539C78.9173 37.6931 80.8672 38.1211 82.6701 39.0904C84.8613 40.2686 86.287 42.0888 87.096 44.4258C87.5042 45.6072 87.7239 46.823 87.673 48.0782C87.495 52.4653 84.9258 56.399 80.0335 57.5921C78.9993 57.8437 77.9393 57.9719 76.8753 57.9743C73.7677 57.984 70.6601 57.9873 67.5525 57.9841C67.469 57.9841 67.3855 57.9765 67.2774 57.9711C67.2619 57.8883 67.2417 57.8103 67.2338 57.7307C67.2265 57.6574 67.2319 57.5826 67.2319 57.5078V37.6374L67.2313 37.639ZM72.8705 41.3178C72.861 41.4567 72.8465 41.571 72.8465 41.6853C72.8452 45.7694 72.8452 49.8534 72.8465 53.9374C72.8465 54.0499 72.8645 54.1604 72.8765 54.3037H73.2205C73.9688 54.3037 74.7167 54.3094 75.465 54.3011C76.0653 54.2997 76.664 54.24 77.2528 54.1228C78.7216 53.8177 79.8691 53.0538 80.6418 51.7418C81.183 50.8225 81.4833 49.8271 81.5874 48.7692C81.7094 47.5248 81.6768 46.2889 81.305 45.084C80.7521 43.2909 79.608 42.0907 77.7896 41.5812C77.1058 41.3901 76.404 41.3179 75.6974 41.3073C74.8546 41.2949 74.0114 41.3026 73.1683 41.3026C73.0855 41.3022 73.0023 41.3108 72.8705 41.3178Z" fill="#656565"/>
<path d="M107 57.9692H101.16C101.118 57.8568 101.075 57.7501 101.036 57.6415C100.552 56.2638 100.067 54.8859 99.5822 53.5079C99.4593 53.1576 99.4586 53.1576 99.0925 53.1576H92.3582C91.9826 53.1576 91.9826 53.1576 91.8524 53.5296C91.3676 54.9075 90.8819 56.2853 90.3953 57.6629C90.3605 57.7612 90.3197 57.8577 90.2771 57.9676H85.6643C85.6852 57.7291 92.974 38.1682 93.2405 37.6387H99.3221L107 57.9692ZM95.7725 42.3471H95.6713L93.0385 49.7325C93.1574 49.7526 93.2282 49.7746 93.2971 49.7746C94.92 49.7765 96.5428 49.7765 98.1656 49.7746C98.233 49.7746 98.3 49.7446 98.4005 49.7211C97.5172 47.2443 96.6444 44.7958 95.7725 42.3471Z" fill="#656565"/>
<path d="M66.5272 57.9773H60.6913C60.6486 57.8684 60.6037 57.763 60.5648 57.6551C60.0754 56.2676 59.5864 54.8799 59.0976 53.4922C58.9867 53.1779 58.9854 53.1737 58.65 53.1737C56.3852 53.1725 54.1202 53.1725 51.8549 53.1737C51.5072 53.1737 51.5072 53.1772 51.3883 53.5106C50.9 54.8984 50.4117 56.2862 49.9233 57.6742C49.8117 57.9926 49.8108 57.9926 49.4807 57.9926C48.153 57.9926 46.8252 57.9926 45.4974 57.9926H45.1282C47.6775 51.1781 50.2091 44.4126 52.743 37.6401H58.8444C61.401 44.4037 63.9535 51.1628 66.5272 57.9773ZM55.2436 42.3667C55.078 42.6065 52.6301 49.4914 52.6197 49.7566C52.6901 49.7696 52.7613 49.7783 52.8327 49.7827C54.4427 49.784 56.0527 49.784 57.6627 49.7827C57.7395 49.7827 57.816 49.756 57.8928 49.742C57.8043 49.2815 55.3802 42.5495 55.2436 42.3667Z" fill="#656565"/>
<path d="M30.0526 37.6372H35.6305C35.6305 39.0383 35.6305 40.4232 35.6305 41.8087V54.2863C35.7842 54.2952 35.915 54.3099 36.0469 54.3099C38.8175 54.3111 41.5881 54.3111 44.3587 54.3099H44.7552C44.85 54.5579 44.8734 57.5397 44.7868 57.9719C44.6863 57.9808 44.575 57.9992 44.464 57.9992C39.7656 58.0005 35.0673 58.0005 30.369 57.9992C30.2663 57.9992 30.1636 57.9852 30.0706 57.9786C29.99 57.7171 29.971 38.041 30.0526 37.6372Z" fill="#656565"/>
<path d="M61.7292 11.1292C61.6612 11.5352 61.6027 11.8995 61.5395 12.2618C61.123 14.5758 60.7056 16.8898 60.2873 19.2037C59.9387 21.1317 59.589 23.0599 59.2383 24.9881C59.1798 25.3116 59.1305 25.6317 59.2108 25.9644C59.3929 26.7182 60.0543 27.2821 60.8231 27.2917C61.8196 27.3041 62.7917 27.1175 63.7524 26.8742C65.8705 26.3376 67.799 25.3846 69.5624 24.0939C69.6642 24.0194 69.7672 23.9468 69.8871 23.8605C70.4315 24.2009 70.8921 24.6076 71.0691 25.2486C71.206 25.7438 71.0615 26.1912 70.753 26.5895C70.4507 26.9818 70.0609 27.2691 69.6383 27.5146C68.8659 27.9633 68.0317 28.2537 67.1702 28.4648C65.2519 28.9345 63.3064 29.0622 61.3384 28.9351C59.9474 28.845 58.5814 28.6167 57.2508 28.1906C57.0212 28.1167 56.9801 28.1422 56.9296 28.3852C56.8648 28.6963 56.8053 29.0087 56.7563 29.3227C56.7247 29.5347 56.7598 29.5914 56.971 29.6334C57.8682 29.8115 58.7638 30.0038 59.6667 30.148C60.6009 30.2974 61.542 30.4069 62.4822 30.5146C63.0465 30.5782 63.6146 30.6298 64.1821 30.6464C65.4874 30.6843 66.7949 30.7461 68.0993 30.7101C69.8093 30.661 71.4918 30.3916 73.1019 29.7701C73.694 29.5414 74.2716 29.2733 74.7578 28.8593C75.0182 28.6442 75.2483 28.3944 75.4419 28.1167C75.7925 27.5951 75.7897 27.0312 75.4577 26.4997C75.2994 26.2497 75.1043 26.0253 74.8792 25.8342C74.6155 25.6113 74.3101 25.4384 74.0187 25.247C73.8075 25.1078 73.5878 24.9814 73.3816 24.8353C73.2719 24.7529 73.1718 24.6582 73.0832 24.5531C72.9466 24.399 72.8287 24.2235 72.9078 24.0073C72.9868 23.7911 73.1923 23.7462 73.3959 23.7185C73.8091 23.6618 74.2144 23.7185 74.6184 23.8032C74.8994 23.8615 74.9604 23.8032 74.913 23.5144C74.8814 23.3157 74.834 23.1192 74.803 22.9205C74.7799 22.7743 74.7082 22.6951 74.5589 22.6775C73.8483 22.5938 73.1382 22.5065 72.4279 22.4228C72.1911 22.3941 71.9537 22.3687 71.6495 22.3343C71.7491 22.1913 71.8076 22.0865 71.8847 21.9999C72.6969 21.101 73.3968 20.1231 73.9529 19.0429C74.5694 17.8446 74.981 16.5811 75.098 15.2332C75.2039 14.011 75.0518 12.8207 74.5747 11.6823C74.5381 11.5947 74.5033 11.5059 74.4711 11.4167C74.4644 11.3989 74.4726 11.3759 74.4758 11.3212C74.5931 11.3212 74.7154 11.3075 74.834 11.3234C77.2553 11.6457 79.6516 12.094 82.0005 12.778C84.0987 13.3888 86.1384 14.1489 88.0517 15.2223C89.3478 15.949 90.5545 16.7938 91.5485 17.9173C92.1716 18.6213 92.6701 19.4008 92.9322 20.3173C93.3255 21.6945 93.0903 22.9807 92.371 24.1943C91.8184 25.1282 91.0714 25.8858 90.2324 26.5567C88.8524 27.6607 87.3068 28.4763 85.6892 29.1587C83.5078 30.0783 81.2509 30.7464 78.9343 31.2062C77.6144 31.468 76.2873 31.703 74.9544 31.8854C73.767 32.0478 72.5682 32.1322 71.3729 32.2322C69.2595 32.4093 67.1408 32.3994 65.0239 32.3405C63.8672 32.3086 62.7108 32.2163 61.5578 32.1096C60.4478 32.0067 59.3379 31.881 58.2362 31.7112C54.4352 31.1256 50.7295 30.1999 47.2555 28.4839C45.9552 27.8413 44.7289 27.0828 43.6442 26.1058C42.9882 25.5158 42.4113 24.8598 41.9728 24.0857C41.522 23.2867 41.2669 22.4355 41.2884 21.5079C41.307 20.7061 41.5315 19.9635 41.908 19.2636C42.4233 18.3061 43.1492 17.5284 43.9743 16.8397C45.2913 15.7411 46.7768 14.9262 48.337 14.239C50.5426 13.2668 52.8381 12.5745 55.1914 12.0835C56.4674 11.8173 57.7547 11.6036 59.0414 11.3954C59.778 11.2763 60.5237 11.2135 61.266 11.1311C61.3982 11.1164 61.5347 11.1292 61.7292 11.1292Z" fill="#656565"/>
</svg>
